<mxfile host="app.diagrams.net" agent="Mozilla/5.0 (Windows NT 10.0; Win64; x64) AppleWebKit/537.36 (KHTML, like Gecko) Chrome/141.0.0.0 Safari/537.36" version="28.2.7">
  <diagram name="Pagina-1" id="szylHUDKqCaE8vShAE06">
    <mxGraphModel dx="613" dy="310" grid="1" gridSize="10" guides="1" tooltips="1" connect="1" arrows="1" fold="1" page="1" pageScale="1" pageWidth="1654" pageHeight="2336" math="0" shadow="0">
      <root>
        <mxCell id="0" />
        <mxCell id="1" parent="0" />
        <mxCell id="4OtoTD2fpRi7HfzD1Dlc-269" value="" style="rounded=0;whiteSpace=wrap;html=1;rotation=90;strokeColor=light-dark(#ff0000, #ededed);dashed=1;dashPattern=8 8;fillColor=none;" vertex="1" parent="1">
          <mxGeometry x="203.45" y="402.82" width="458" height="259.63" as="geometry" />
        </mxCell>
        <mxCell id="4OtoTD2fpRi7HfzD1Dlc-2" value="" style="rounded=0;whiteSpace=wrap;html=1;rotation=90;" vertex="1" parent="1">
          <mxGeometry x="375" y="330" width="120" height="90" as="geometry" />
        </mxCell>
        <mxCell id="4OtoTD2fpRi7HfzD1Dlc-3" value="" style="triangle;whiteSpace=wrap;html=1;" vertex="1" parent="1">
          <mxGeometry x="390" y="400" width="30" height="20" as="geometry" />
        </mxCell>
        <mxCell id="4OtoTD2fpRi7HfzD1Dlc-4" value="" style="endArrow=none;html=1;rounded=0;" edge="1" parent="1">
          <mxGeometry width="50" height="50" relative="1" as="geometry">
            <mxPoint x="320" y="350" as="sourcePoint" />
            <mxPoint x="390" y="350" as="targetPoint" />
          </mxGeometry>
        </mxCell>
        <mxCell id="4OtoTD2fpRi7HfzD1Dlc-5" value="" style="endArrow=none;html=1;rounded=0;" edge="1" parent="1">
          <mxGeometry width="50" height="50" relative="1" as="geometry">
            <mxPoint x="480" y="350" as="sourcePoint" />
            <mxPoint x="564" y="350" as="targetPoint" />
          </mxGeometry>
        </mxCell>
        <mxCell id="4OtoTD2fpRi7HfzD1Dlc-18" value="" style="rounded=0;whiteSpace=wrap;html=1;rotation=90;" vertex="1" parent="1">
          <mxGeometry x="550" y="330" width="120" height="90" as="geometry" />
        </mxCell>
        <mxCell id="4OtoTD2fpRi7HfzD1Dlc-19" value="" style="triangle;whiteSpace=wrap;html=1;" vertex="1" parent="1">
          <mxGeometry x="565" y="400" width="30" height="20" as="geometry" />
        </mxCell>
        <mxCell id="4OtoTD2fpRi7HfzD1Dlc-20" value="" style="endArrow=none;html=1;rounded=0;" edge="1" parent="1">
          <mxGeometry width="50" height="50" relative="1" as="geometry">
            <mxPoint x="655" y="350" as="sourcePoint" />
            <mxPoint x="739" y="350" as="targetPoint" />
          </mxGeometry>
        </mxCell>
        <mxCell id="4OtoTD2fpRi7HfzD1Dlc-21" value="" style="rounded=0;whiteSpace=wrap;html=1;rotation=90;" vertex="1" parent="1">
          <mxGeometry x="720" y="330" width="120" height="90" as="geometry" />
        </mxCell>
        <mxCell id="4OtoTD2fpRi7HfzD1Dlc-22" value="" style="triangle;whiteSpace=wrap;html=1;" vertex="1" parent="1">
          <mxGeometry x="735" y="400" width="30" height="20" as="geometry" />
        </mxCell>
        <mxCell id="4OtoTD2fpRi7HfzD1Dlc-23" value="" style="endArrow=none;html=1;rounded=0;" edge="1" parent="1">
          <mxGeometry width="50" height="50" relative="1" as="geometry">
            <mxPoint x="825" y="350" as="sourcePoint" />
            <mxPoint x="909" y="350" as="targetPoint" />
          </mxGeometry>
        </mxCell>
        <mxCell id="4OtoTD2fpRi7HfzD1Dlc-24" value="" style="rounded=0;whiteSpace=wrap;html=1;rotation=90;" vertex="1" parent="1">
          <mxGeometry x="890" y="330" width="120" height="90" as="geometry" />
        </mxCell>
        <mxCell id="4OtoTD2fpRi7HfzD1Dlc-25" value="" style="triangle;whiteSpace=wrap;html=1;" vertex="1" parent="1">
          <mxGeometry x="905" y="400" width="30" height="20" as="geometry" />
        </mxCell>
        <mxCell id="4OtoTD2fpRi7HfzD1Dlc-26" value="" style="endArrow=none;html=1;rounded=0;" edge="1" parent="1">
          <mxGeometry width="50" height="50" relative="1" as="geometry">
            <mxPoint x="995" y="350" as="sourcePoint" />
            <mxPoint x="1079" y="350" as="targetPoint" />
          </mxGeometry>
        </mxCell>
        <mxCell id="4OtoTD2fpRi7HfzD1Dlc-27" value="" style="rounded=0;whiteSpace=wrap;html=1;rotation=90;" vertex="1" parent="1">
          <mxGeometry x="1060" y="330" width="120" height="90" as="geometry" />
        </mxCell>
        <mxCell id="4OtoTD2fpRi7HfzD1Dlc-28" value="" style="triangle;whiteSpace=wrap;html=1;" vertex="1" parent="1">
          <mxGeometry x="1075" y="400" width="30" height="20" as="geometry" />
        </mxCell>
        <mxCell id="4OtoTD2fpRi7HfzD1Dlc-29" value="" style="endArrow=none;html=1;rounded=0;" edge="1" parent="1">
          <mxGeometry width="50" height="50" relative="1" as="geometry">
            <mxPoint x="1165" y="350" as="sourcePoint" />
            <mxPoint x="1249" y="350" as="targetPoint" />
          </mxGeometry>
        </mxCell>
        <mxCell id="4OtoTD2fpRi7HfzD1Dlc-30" value="" style="rounded=0;whiteSpace=wrap;html=1;rotation=90;" vertex="1" parent="1">
          <mxGeometry x="1230" y="330" width="120" height="90" as="geometry" />
        </mxCell>
        <mxCell id="4OtoTD2fpRi7HfzD1Dlc-31" value="" style="triangle;whiteSpace=wrap;html=1;" vertex="1" parent="1">
          <mxGeometry x="1245" y="400" width="30" height="20" as="geometry" />
        </mxCell>
        <mxCell id="4OtoTD2fpRi7HfzD1Dlc-32" value="" style="endArrow=none;html=1;rounded=0;" edge="1" parent="1">
          <mxGeometry width="50" height="50" relative="1" as="geometry">
            <mxPoint x="1335" y="350" as="sourcePoint" />
            <mxPoint x="1419" y="350" as="targetPoint" />
          </mxGeometry>
        </mxCell>
        <mxCell id="4OtoTD2fpRi7HfzD1Dlc-33" value="" style="rounded=0;whiteSpace=wrap;html=1;rotation=90;" vertex="1" parent="1">
          <mxGeometry x="1405" y="330" width="120" height="90" as="geometry" />
        </mxCell>
        <mxCell id="4OtoTD2fpRi7HfzD1Dlc-34" value="" style="triangle;whiteSpace=wrap;html=1;" vertex="1" parent="1">
          <mxGeometry x="1420" y="400" width="30" height="20" as="geometry" />
        </mxCell>
        <mxCell id="4OtoTD2fpRi7HfzD1Dlc-35" value="" style="endArrow=none;html=1;rounded=0;" edge="1" parent="1">
          <mxGeometry width="50" height="50" relative="1" as="geometry">
            <mxPoint x="1510" y="350" as="sourcePoint" />
            <mxPoint x="1594" y="350" as="targetPoint" />
          </mxGeometry>
        </mxCell>
        <mxCell id="4OtoTD2fpRi7HfzD1Dlc-36" value="" style="rounded=0;whiteSpace=wrap;html=1;rotation=90;" vertex="1" parent="1">
          <mxGeometry x="1580" y="330" width="120" height="90" as="geometry" />
        </mxCell>
        <mxCell id="4OtoTD2fpRi7HfzD1Dlc-37" value="" style="triangle;whiteSpace=wrap;html=1;" vertex="1" parent="1">
          <mxGeometry x="1595" y="400" width="30" height="20" as="geometry" />
        </mxCell>
        <mxCell id="4OtoTD2fpRi7HfzD1Dlc-38" value="" style="endArrow=none;html=1;rounded=0;" edge="1" parent="1">
          <mxGeometry width="50" height="50" relative="1" as="geometry">
            <mxPoint x="1685" y="350" as="sourcePoint" />
            <mxPoint x="1769" y="350" as="targetPoint" />
          </mxGeometry>
        </mxCell>
        <mxCell id="4OtoTD2fpRi7HfzD1Dlc-39" value="" style="rounded=0;whiteSpace=wrap;html=1;rotation=90;" vertex="1" parent="1">
          <mxGeometry x="1750" y="330" width="120" height="90" as="geometry" />
        </mxCell>
        <mxCell id="4OtoTD2fpRi7HfzD1Dlc-40" value="" style="triangle;whiteSpace=wrap;html=1;" vertex="1" parent="1">
          <mxGeometry x="1765" y="400" width="30" height="20" as="geometry" />
        </mxCell>
        <mxCell id="4OtoTD2fpRi7HfzD1Dlc-41" value="" style="endArrow=none;html=1;rounded=0;" edge="1" parent="1">
          <mxGeometry width="50" height="50" relative="1" as="geometry">
            <mxPoint x="1855" y="350" as="sourcePoint" />
            <mxPoint x="1939" y="350" as="targetPoint" />
          </mxGeometry>
        </mxCell>
        <mxCell id="4OtoTD2fpRi7HfzD1Dlc-42" value="" style="rounded=0;whiteSpace=wrap;html=1;rotation=90;" vertex="1" parent="1">
          <mxGeometry x="1924" y="330" width="120" height="90" as="geometry" />
        </mxCell>
        <mxCell id="4OtoTD2fpRi7HfzD1Dlc-43" value="" style="triangle;whiteSpace=wrap;html=1;" vertex="1" parent="1">
          <mxGeometry x="1939" y="400" width="30" height="20" as="geometry" />
        </mxCell>
        <mxCell id="4OtoTD2fpRi7HfzD1Dlc-44" value="" style="endArrow=none;html=1;rounded=0;" edge="1" parent="1">
          <mxGeometry width="50" height="50" relative="1" as="geometry">
            <mxPoint x="2029" y="350" as="sourcePoint" />
            <mxPoint x="2060" y="350" as="targetPoint" />
          </mxGeometry>
        </mxCell>
        <mxCell id="4OtoTD2fpRi7HfzD1Dlc-45" value="" style="endArrow=oval;html=1;rounded=0;startArrow=none;startFill=0;endFill=1;" edge="1" parent="1">
          <mxGeometry width="50" height="50" relative="1" as="geometry">
            <mxPoint x="350" y="470" as="sourcePoint" />
            <mxPoint x="350" y="350" as="targetPoint" />
          </mxGeometry>
        </mxCell>
        <mxCell id="4OtoTD2fpRi7HfzD1Dlc-46" value="&lt;div style=&quot;line-height: 230%;&quot;&gt;&lt;font style=&quot;font-size: 29px; line-height: 140%;&quot;&gt;X&lt;/font&gt;&lt;/div&gt;" style="whiteSpace=wrap;html=1;aspect=fixed;" vertex="1" parent="1">
          <mxGeometry x="320" y="470" width="60" height="60" as="geometry" />
        </mxCell>
        <mxCell id="4OtoTD2fpRi7HfzD1Dlc-47" value="&lt;div style=&quot;line-height: 230%;&quot;&gt;&lt;font style=&quot;font-size: 21px;&quot;&gt;appx&lt;/font&gt;&lt;/div&gt;" style="whiteSpace=wrap;html=1;aspect=fixed;" vertex="1" parent="1">
          <mxGeometry x="320" y="550" width="60" height="60" as="geometry" />
        </mxCell>
        <mxCell id="4OtoTD2fpRi7HfzD1Dlc-48" value="" style="endArrow=none;html=1;rounded=0;exitX=0.5;exitY=0;exitDx=0;exitDy=0;" edge="1" parent="1" source="4OtoTD2fpRi7HfzD1Dlc-47">
          <mxGeometry width="50" height="50" relative="1" as="geometry">
            <mxPoint x="349.86" y="580" as="sourcePoint" />
            <mxPoint x="349.86" y="530" as="targetPoint" />
          </mxGeometry>
        </mxCell>
        <mxCell id="4OtoTD2fpRi7HfzD1Dlc-50" value="" style="endArrow=oval;html=1;rounded=0;startArrow=none;startFill=0;endFill=1;" edge="1" parent="1">
          <mxGeometry width="50" height="50" relative="1" as="geometry">
            <mxPoint x="510" y="470" as="sourcePoint" />
            <mxPoint x="510" y="350" as="targetPoint" />
          </mxGeometry>
        </mxCell>
        <mxCell id="4OtoTD2fpRi7HfzD1Dlc-51" value="" style="endArrow=oval;html=1;rounded=0;startArrow=none;startFill=0;endFill=1;" edge="1" parent="1">
          <mxGeometry width="50" height="50" relative="1" as="geometry">
            <mxPoint x="690" y="470" as="sourcePoint" />
            <mxPoint x="690" y="350" as="targetPoint" />
          </mxGeometry>
        </mxCell>
        <mxCell id="4OtoTD2fpRi7HfzD1Dlc-52" value="" style="endArrow=oval;html=1;rounded=0;startArrow=none;startFill=0;endFill=1;" edge="1" parent="1">
          <mxGeometry width="50" height="50" relative="1" as="geometry">
            <mxPoint x="860" y="470" as="sourcePoint" />
            <mxPoint x="860" y="350" as="targetPoint" />
          </mxGeometry>
        </mxCell>
        <mxCell id="4OtoTD2fpRi7HfzD1Dlc-53" value="" style="endArrow=oval;html=1;rounded=0;startArrow=none;startFill=0;endFill=1;" edge="1" parent="1">
          <mxGeometry width="50" height="50" relative="1" as="geometry">
            <mxPoint x="1030" y="470" as="sourcePoint" />
            <mxPoint x="1030" y="350" as="targetPoint" />
          </mxGeometry>
        </mxCell>
        <mxCell id="4OtoTD2fpRi7HfzD1Dlc-54" value="" style="endArrow=oval;html=1;rounded=0;startArrow=none;startFill=0;endFill=1;" edge="1" parent="1">
          <mxGeometry width="50" height="50" relative="1" as="geometry">
            <mxPoint x="1200" y="470" as="sourcePoint" />
            <mxPoint x="1200" y="350" as="targetPoint" />
          </mxGeometry>
        </mxCell>
        <mxCell id="4OtoTD2fpRi7HfzD1Dlc-55" value="" style="endArrow=oval;html=1;rounded=0;startArrow=none;startFill=0;endFill=1;" edge="1" parent="1">
          <mxGeometry width="50" height="50" relative="1" as="geometry">
            <mxPoint x="1370" y="470" as="sourcePoint" />
            <mxPoint x="1370" y="350" as="targetPoint" />
          </mxGeometry>
        </mxCell>
        <mxCell id="4OtoTD2fpRi7HfzD1Dlc-56" value="" style="endArrow=oval;html=1;rounded=0;startArrow=none;startFill=0;endFill=1;" edge="1" parent="1">
          <mxGeometry width="50" height="50" relative="1" as="geometry">
            <mxPoint x="1540" y="470" as="sourcePoint" />
            <mxPoint x="1540" y="350" as="targetPoint" />
          </mxGeometry>
        </mxCell>
        <mxCell id="4OtoTD2fpRi7HfzD1Dlc-57" value="" style="endArrow=oval;html=1;rounded=0;startArrow=none;startFill=0;endFill=1;" edge="1" parent="1">
          <mxGeometry width="50" height="50" relative="1" as="geometry">
            <mxPoint x="1720" y="470" as="sourcePoint" />
            <mxPoint x="1720" y="350" as="targetPoint" />
          </mxGeometry>
        </mxCell>
        <mxCell id="4OtoTD2fpRi7HfzD1Dlc-58" value="" style="endArrow=none;html=1;rounded=0;startArrow=none;startFill=0;endFill=0;" edge="1" parent="1">
          <mxGeometry width="50" height="50" relative="1" as="geometry">
            <mxPoint x="2060" y="470" as="sourcePoint" />
            <mxPoint x="2060" y="350" as="targetPoint" />
          </mxGeometry>
        </mxCell>
        <mxCell id="4OtoTD2fpRi7HfzD1Dlc-59" value="" style="endArrow=oval;html=1;rounded=0;startArrow=none;startFill=0;endFill=1;" edge="1" parent="1">
          <mxGeometry width="50" height="50" relative="1" as="geometry">
            <mxPoint x="1890" y="470" as="sourcePoint" />
            <mxPoint x="1890" y="350" as="targetPoint" />
          </mxGeometry>
        </mxCell>
        <mxCell id="4OtoTD2fpRi7HfzD1Dlc-60" value="&lt;div style=&quot;line-height: 230%;&quot;&gt;&lt;font style=&quot;font-size: 29px; line-height: 140%;&quot;&gt;X&lt;/font&gt;&lt;/div&gt;" style="whiteSpace=wrap;html=1;aspect=fixed;" vertex="1" parent="1">
          <mxGeometry x="480" y="470" width="60" height="60" as="geometry" />
        </mxCell>
        <mxCell id="4OtoTD2fpRi7HfzD1Dlc-61" value="&lt;div style=&quot;line-height: 230%;&quot;&gt;&lt;font style=&quot;font-size: 21px;&quot;&gt;appx&lt;/font&gt;&lt;/div&gt;" style="whiteSpace=wrap;html=1;aspect=fixed;" vertex="1" parent="1">
          <mxGeometry x="480" y="550" width="60" height="60" as="geometry" />
        </mxCell>
        <mxCell id="4OtoTD2fpRi7HfzD1Dlc-62" value="" style="endArrow=none;html=1;rounded=0;exitX=0.5;exitY=0;exitDx=0;exitDy=0;" edge="1" parent="1" source="4OtoTD2fpRi7HfzD1Dlc-61">
          <mxGeometry width="50" height="50" relative="1" as="geometry">
            <mxPoint x="509.86" y="580" as="sourcePoint" />
            <mxPoint x="509.86" y="530" as="targetPoint" />
          </mxGeometry>
        </mxCell>
        <mxCell id="4OtoTD2fpRi7HfzD1Dlc-63" value="&lt;div style=&quot;line-height: 230%;&quot;&gt;&lt;font style=&quot;font-size: 29px; line-height: 140%;&quot;&gt;X&lt;/font&gt;&lt;/div&gt;" style="whiteSpace=wrap;html=1;aspect=fixed;" vertex="1" parent="1">
          <mxGeometry x="660" y="470" width="60" height="60" as="geometry" />
        </mxCell>
        <mxCell id="4OtoTD2fpRi7HfzD1Dlc-64" value="&lt;div style=&quot;line-height: 230%;&quot;&gt;&lt;font style=&quot;font-size: 21px;&quot;&gt;appx&lt;/font&gt;&lt;/div&gt;" style="whiteSpace=wrap;html=1;aspect=fixed;" vertex="1" parent="1">
          <mxGeometry x="660" y="550" width="60" height="60" as="geometry" />
        </mxCell>
        <mxCell id="4OtoTD2fpRi7HfzD1Dlc-65" value="" style="endArrow=none;html=1;rounded=0;exitX=0.5;exitY=0;exitDx=0;exitDy=0;" edge="1" parent="1" source="4OtoTD2fpRi7HfzD1Dlc-64">
          <mxGeometry width="50" height="50" relative="1" as="geometry">
            <mxPoint x="689.86" y="580" as="sourcePoint" />
            <mxPoint x="689.86" y="530" as="targetPoint" />
          </mxGeometry>
        </mxCell>
        <mxCell id="4OtoTD2fpRi7HfzD1Dlc-66" value="&lt;div style=&quot;line-height: 230%;&quot;&gt;&lt;font style=&quot;font-size: 29px; line-height: 140%;&quot;&gt;X&lt;/font&gt;&lt;/div&gt;" style="whiteSpace=wrap;html=1;aspect=fixed;" vertex="1" parent="1">
          <mxGeometry x="830" y="470" width="60" height="60" as="geometry" />
        </mxCell>
        <mxCell id="4OtoTD2fpRi7HfzD1Dlc-67" value="&lt;div style=&quot;line-height: 230%;&quot;&gt;&lt;font style=&quot;font-size: 21px;&quot;&gt;appx&lt;/font&gt;&lt;/div&gt;" style="whiteSpace=wrap;html=1;aspect=fixed;" vertex="1" parent="1">
          <mxGeometry x="830" y="550" width="60" height="60" as="geometry" />
        </mxCell>
        <mxCell id="4OtoTD2fpRi7HfzD1Dlc-68" value="" style="endArrow=none;html=1;rounded=0;exitX=0.5;exitY=0;exitDx=0;exitDy=0;" edge="1" parent="1" source="4OtoTD2fpRi7HfzD1Dlc-67">
          <mxGeometry width="50" height="50" relative="1" as="geometry">
            <mxPoint x="859.86" y="580" as="sourcePoint" />
            <mxPoint x="859.86" y="530" as="targetPoint" />
          </mxGeometry>
        </mxCell>
        <mxCell id="4OtoTD2fpRi7HfzD1Dlc-69" value="&lt;div style=&quot;line-height: 230%;&quot;&gt;&lt;font style=&quot;font-size: 29px; line-height: 140%;&quot;&gt;X&lt;/font&gt;&lt;/div&gt;" style="whiteSpace=wrap;html=1;aspect=fixed;" vertex="1" parent="1">
          <mxGeometry x="1000" y="470" width="60" height="60" as="geometry" />
        </mxCell>
        <mxCell id="4OtoTD2fpRi7HfzD1Dlc-70" value="&lt;div style=&quot;line-height: 230%;&quot;&gt;&lt;font style=&quot;font-size: 21px;&quot;&gt;appx&lt;/font&gt;&lt;/div&gt;" style="whiteSpace=wrap;html=1;aspect=fixed;" vertex="1" parent="1">
          <mxGeometry x="1000" y="550" width="60" height="60" as="geometry" />
        </mxCell>
        <mxCell id="4OtoTD2fpRi7HfzD1Dlc-71" value="" style="endArrow=none;html=1;rounded=0;exitX=0.5;exitY=0;exitDx=0;exitDy=0;" edge="1" parent="1" source="4OtoTD2fpRi7HfzD1Dlc-70">
          <mxGeometry width="50" height="50" relative="1" as="geometry">
            <mxPoint x="1029.8600000000001" y="580" as="sourcePoint" />
            <mxPoint x="1029.8600000000001" y="530" as="targetPoint" />
          </mxGeometry>
        </mxCell>
        <mxCell id="4OtoTD2fpRi7HfzD1Dlc-72" value="&lt;div style=&quot;line-height: 230%;&quot;&gt;&lt;font style=&quot;font-size: 29px; line-height: 140%;&quot;&gt;X&lt;/font&gt;&lt;/div&gt;" style="whiteSpace=wrap;html=1;aspect=fixed;" vertex="1" parent="1">
          <mxGeometry x="1170" y="470" width="60" height="60" as="geometry" />
        </mxCell>
        <mxCell id="4OtoTD2fpRi7HfzD1Dlc-73" value="&lt;div style=&quot;line-height: 230%;&quot;&gt;&lt;font style=&quot;font-size: 21px;&quot;&gt;appx&lt;/font&gt;&lt;/div&gt;" style="whiteSpace=wrap;html=1;aspect=fixed;" vertex="1" parent="1">
          <mxGeometry x="1170" y="550" width="60" height="60" as="geometry" />
        </mxCell>
        <mxCell id="4OtoTD2fpRi7HfzD1Dlc-74" value="" style="endArrow=none;html=1;rounded=0;exitX=0.5;exitY=0;exitDx=0;exitDy=0;" edge="1" parent="1" source="4OtoTD2fpRi7HfzD1Dlc-73">
          <mxGeometry width="50" height="50" relative="1" as="geometry">
            <mxPoint x="1199.8600000000001" y="580" as="sourcePoint" />
            <mxPoint x="1199.8600000000001" y="530" as="targetPoint" />
          </mxGeometry>
        </mxCell>
        <mxCell id="4OtoTD2fpRi7HfzD1Dlc-75" value="&lt;div style=&quot;line-height: 230%;&quot;&gt;&lt;font style=&quot;font-size: 29px; line-height: 140%;&quot;&gt;X&lt;/font&gt;&lt;/div&gt;" style="whiteSpace=wrap;html=1;aspect=fixed;" vertex="1" parent="1">
          <mxGeometry x="1340" y="470" width="60" height="60" as="geometry" />
        </mxCell>
        <mxCell id="4OtoTD2fpRi7HfzD1Dlc-76" value="&lt;div style=&quot;line-height: 230%;&quot;&gt;&lt;font style=&quot;font-size: 21px;&quot;&gt;appx&lt;/font&gt;&lt;/div&gt;" style="whiteSpace=wrap;html=1;aspect=fixed;" vertex="1" parent="1">
          <mxGeometry x="1340" y="550" width="60" height="60" as="geometry" />
        </mxCell>
        <mxCell id="4OtoTD2fpRi7HfzD1Dlc-77" value="" style="endArrow=none;html=1;rounded=0;exitX=0.5;exitY=0;exitDx=0;exitDy=0;" edge="1" parent="1" source="4OtoTD2fpRi7HfzD1Dlc-76">
          <mxGeometry width="50" height="50" relative="1" as="geometry">
            <mxPoint x="1369.8600000000001" y="580" as="sourcePoint" />
            <mxPoint x="1369.8600000000001" y="530" as="targetPoint" />
          </mxGeometry>
        </mxCell>
        <mxCell id="4OtoTD2fpRi7HfzD1Dlc-78" value="&lt;div style=&quot;line-height: 230%;&quot;&gt;&lt;font style=&quot;font-size: 29px; line-height: 140%;&quot;&gt;X&lt;/font&gt;&lt;/div&gt;" style="whiteSpace=wrap;html=1;aspect=fixed;" vertex="1" parent="1">
          <mxGeometry x="1510" y="470" width="60" height="60" as="geometry" />
        </mxCell>
        <mxCell id="4OtoTD2fpRi7HfzD1Dlc-79" value="&lt;div style=&quot;line-height: 230%;&quot;&gt;&lt;font style=&quot;font-size: 21px;&quot;&gt;appx&lt;/font&gt;&lt;/div&gt;" style="whiteSpace=wrap;html=1;aspect=fixed;" vertex="1" parent="1">
          <mxGeometry x="1510" y="550" width="60" height="60" as="geometry" />
        </mxCell>
        <mxCell id="4OtoTD2fpRi7HfzD1Dlc-80" value="" style="endArrow=none;html=1;rounded=0;exitX=0.5;exitY=0;exitDx=0;exitDy=0;" edge="1" parent="1" source="4OtoTD2fpRi7HfzD1Dlc-79">
          <mxGeometry width="50" height="50" relative="1" as="geometry">
            <mxPoint x="1539.8600000000001" y="580" as="sourcePoint" />
            <mxPoint x="1539.8600000000001" y="530" as="targetPoint" />
          </mxGeometry>
        </mxCell>
        <mxCell id="4OtoTD2fpRi7HfzD1Dlc-81" value="&lt;div style=&quot;line-height: 230%;&quot;&gt;&lt;font style=&quot;font-size: 29px; line-height: 140%;&quot;&gt;X&lt;/font&gt;&lt;/div&gt;" style="whiteSpace=wrap;html=1;aspect=fixed;" vertex="1" parent="1">
          <mxGeometry x="1690" y="470" width="60" height="60" as="geometry" />
        </mxCell>
        <mxCell id="4OtoTD2fpRi7HfzD1Dlc-82" value="&lt;div style=&quot;line-height: 230%;&quot;&gt;&lt;font style=&quot;font-size: 21px;&quot;&gt;appx&lt;/font&gt;&lt;/div&gt;" style="whiteSpace=wrap;html=1;aspect=fixed;" vertex="1" parent="1">
          <mxGeometry x="1690" y="550" width="60" height="60" as="geometry" />
        </mxCell>
        <mxCell id="4OtoTD2fpRi7HfzD1Dlc-83" value="" style="endArrow=none;html=1;rounded=0;exitX=0.5;exitY=0;exitDx=0;exitDy=0;" edge="1" parent="1" source="4OtoTD2fpRi7HfzD1Dlc-82">
          <mxGeometry width="50" height="50" relative="1" as="geometry">
            <mxPoint x="1719.8600000000001" y="580" as="sourcePoint" />
            <mxPoint x="1719.8600000000001" y="530" as="targetPoint" />
          </mxGeometry>
        </mxCell>
        <mxCell id="4OtoTD2fpRi7HfzD1Dlc-84" value="&lt;div style=&quot;line-height: 230%;&quot;&gt;&lt;font style=&quot;font-size: 29px; line-height: 140%;&quot;&gt;X&lt;/font&gt;&lt;/div&gt;" style="whiteSpace=wrap;html=1;aspect=fixed;" vertex="1" parent="1">
          <mxGeometry x="1860" y="470" width="60" height="60" as="geometry" />
        </mxCell>
        <mxCell id="4OtoTD2fpRi7HfzD1Dlc-85" value="&lt;div style=&quot;line-height: 230%;&quot;&gt;&lt;font style=&quot;font-size: 21px;&quot;&gt;appx&lt;/font&gt;&lt;/div&gt;" style="whiteSpace=wrap;html=1;aspect=fixed;" vertex="1" parent="1">
          <mxGeometry x="1860" y="550" width="60" height="60" as="geometry" />
        </mxCell>
        <mxCell id="4OtoTD2fpRi7HfzD1Dlc-86" value="" style="endArrow=none;html=1;rounded=0;exitX=0.5;exitY=0;exitDx=0;exitDy=0;" edge="1" parent="1" source="4OtoTD2fpRi7HfzD1Dlc-85">
          <mxGeometry width="50" height="50" relative="1" as="geometry">
            <mxPoint x="1889.8600000000001" y="580" as="sourcePoint" />
            <mxPoint x="1889.8600000000001" y="530" as="targetPoint" />
          </mxGeometry>
        </mxCell>
        <mxCell id="4OtoTD2fpRi7HfzD1Dlc-87" value="&lt;div style=&quot;line-height: 230%;&quot;&gt;&lt;font style=&quot;font-size: 29px; line-height: 140%;&quot;&gt;X&lt;/font&gt;&lt;/div&gt;" style="whiteSpace=wrap;html=1;aspect=fixed;" vertex="1" parent="1">
          <mxGeometry x="2030" y="470" width="60" height="60" as="geometry" />
        </mxCell>
        <mxCell id="4OtoTD2fpRi7HfzD1Dlc-88" value="&lt;div style=&quot;line-height: 230%;&quot;&gt;&lt;font style=&quot;font-size: 21px;&quot;&gt;appx&lt;/font&gt;&lt;/div&gt;" style="whiteSpace=wrap;html=1;aspect=fixed;" vertex="1" parent="1">
          <mxGeometry x="2030" y="550" width="60" height="60" as="geometry" />
        </mxCell>
        <mxCell id="4OtoTD2fpRi7HfzD1Dlc-89" value="" style="endArrow=none;html=1;rounded=0;exitX=0.5;exitY=0;exitDx=0;exitDy=0;" edge="1" parent="1" source="4OtoTD2fpRi7HfzD1Dlc-88">
          <mxGeometry width="50" height="50" relative="1" as="geometry">
            <mxPoint x="2059.86" y="580" as="sourcePoint" />
            <mxPoint x="2059.86" y="530" as="targetPoint" />
          </mxGeometry>
        </mxCell>
        <mxCell id="4OtoTD2fpRi7HfzD1Dlc-96" value="" style="endArrow=none;html=1;rounded=0;strokeWidth=1.5;" edge="1" parent="1">
          <mxGeometry width="50" height="50" relative="1" as="geometry">
            <mxPoint x="460" y="660" as="sourcePoint" />
            <mxPoint x="497.5" y="660" as="targetPoint" />
          </mxGeometry>
        </mxCell>
        <mxCell id="4OtoTD2fpRi7HfzD1Dlc-97" value="" style="endArrow=none;html=1;rounded=0;strokeWidth=1.5;" edge="1" parent="1">
          <mxGeometry width="50" height="50" relative="1" as="geometry">
            <mxPoint x="522.5" y="660" as="sourcePoint" />
            <mxPoint x="560" y="660" as="targetPoint" />
          </mxGeometry>
        </mxCell>
        <mxCell id="4OtoTD2fpRi7HfzD1Dlc-98" value="" style="endArrow=none;html=1;rounded=0;strokeWidth=1.5;" edge="1" parent="1">
          <mxGeometry width="50" height="50" relative="1" as="geometry">
            <mxPoint x="491.25" y="710" as="sourcePoint" />
            <mxPoint x="528.75" y="710" as="targetPoint" />
          </mxGeometry>
        </mxCell>
        <mxCell id="4OtoTD2fpRi7HfzD1Dlc-99" value="" style="endArrow=none;html=1;rounded=0;strokeWidth=1.5;" edge="1" parent="1">
          <mxGeometry width="50" height="50" relative="1" as="geometry">
            <mxPoint x="528.75" y="710" as="sourcePoint" />
            <mxPoint x="560" y="660" as="targetPoint" />
          </mxGeometry>
        </mxCell>
        <mxCell id="4OtoTD2fpRi7HfzD1Dlc-100" value="" style="endArrow=none;html=1;rounded=0;strokeWidth=1.5;" edge="1" parent="1">
          <mxGeometry width="50" height="50" relative="1" as="geometry">
            <mxPoint x="460" y="660" as="sourcePoint" />
            <mxPoint x="491.25" y="710" as="targetPoint" />
          </mxGeometry>
        </mxCell>
        <mxCell id="4OtoTD2fpRi7HfzD1Dlc-101" value="" style="endArrow=none;html=1;rounded=0;strokeWidth=1.5;" edge="1" parent="1">
          <mxGeometry width="50" height="50" relative="1" as="geometry">
            <mxPoint x="497.5" y="660" as="sourcePoint" />
            <mxPoint x="510" y="678.75" as="targetPoint" />
          </mxGeometry>
        </mxCell>
        <mxCell id="4OtoTD2fpRi7HfzD1Dlc-102" value="" style="endArrow=none;html=1;rounded=0;strokeWidth=1.5;" edge="1" parent="1">
          <mxGeometry width="50" height="50" relative="1" as="geometry">
            <mxPoint x="522.5" y="660" as="sourcePoint" />
            <mxPoint x="510" y="678.75" as="targetPoint" />
          </mxGeometry>
        </mxCell>
        <mxCell id="4OtoTD2fpRi7HfzD1Dlc-104" value="" style="endArrow=none;html=1;rounded=0;strokeWidth=1.5;" edge="1" parent="1">
          <mxGeometry width="50" height="50" relative="1" as="geometry">
            <mxPoint x="640" y="660" as="sourcePoint" />
            <mxPoint x="677.5" y="660" as="targetPoint" />
          </mxGeometry>
        </mxCell>
        <mxCell id="4OtoTD2fpRi7HfzD1Dlc-105" value="" style="endArrow=none;html=1;rounded=0;strokeWidth=1.5;" edge="1" parent="1">
          <mxGeometry width="50" height="50" relative="1" as="geometry">
            <mxPoint x="702.5" y="660" as="sourcePoint" />
            <mxPoint x="740" y="660" as="targetPoint" />
          </mxGeometry>
        </mxCell>
        <mxCell id="4OtoTD2fpRi7HfzD1Dlc-106" value="" style="endArrow=none;html=1;rounded=0;strokeWidth=1.5;" edge="1" parent="1">
          <mxGeometry width="50" height="50" relative="1" as="geometry">
            <mxPoint x="671.25" y="710" as="sourcePoint" />
            <mxPoint x="708.75" y="710" as="targetPoint" />
          </mxGeometry>
        </mxCell>
        <mxCell id="4OtoTD2fpRi7HfzD1Dlc-107" value="" style="endArrow=none;html=1;rounded=0;strokeWidth=1.5;" edge="1" parent="1">
          <mxGeometry width="50" height="50" relative="1" as="geometry">
            <mxPoint x="708.75" y="710" as="sourcePoint" />
            <mxPoint x="740" y="660" as="targetPoint" />
          </mxGeometry>
        </mxCell>
        <mxCell id="4OtoTD2fpRi7HfzD1Dlc-108" value="" style="endArrow=none;html=1;rounded=0;strokeWidth=1.5;" edge="1" parent="1">
          <mxGeometry width="50" height="50" relative="1" as="geometry">
            <mxPoint x="640" y="660" as="sourcePoint" />
            <mxPoint x="671.25" y="710" as="targetPoint" />
          </mxGeometry>
        </mxCell>
        <mxCell id="4OtoTD2fpRi7HfzD1Dlc-109" value="" style="endArrow=none;html=1;rounded=0;strokeWidth=1.5;" edge="1" parent="1">
          <mxGeometry width="50" height="50" relative="1" as="geometry">
            <mxPoint x="677.5" y="660" as="sourcePoint" />
            <mxPoint x="690" y="678.75" as="targetPoint" />
          </mxGeometry>
        </mxCell>
        <mxCell id="4OtoTD2fpRi7HfzD1Dlc-110" value="" style="endArrow=none;html=1;rounded=0;strokeWidth=1.5;" edge="1" parent="1">
          <mxGeometry width="50" height="50" relative="1" as="geometry">
            <mxPoint x="702.5" y="660" as="sourcePoint" />
            <mxPoint x="690" y="678.75" as="targetPoint" />
          </mxGeometry>
        </mxCell>
        <mxCell id="4OtoTD2fpRi7HfzD1Dlc-111" value="" style="endArrow=none;html=1;rounded=0;strokeWidth=1.5;" edge="1" parent="1">
          <mxGeometry width="50" height="50" relative="1" as="geometry">
            <mxPoint x="810" y="660" as="sourcePoint" />
            <mxPoint x="847.5" y="660" as="targetPoint" />
          </mxGeometry>
        </mxCell>
        <mxCell id="4OtoTD2fpRi7HfzD1Dlc-112" value="" style="endArrow=none;html=1;rounded=0;strokeWidth=1.5;" edge="1" parent="1">
          <mxGeometry width="50" height="50" relative="1" as="geometry">
            <mxPoint x="872.5" y="660" as="sourcePoint" />
            <mxPoint x="910" y="660" as="targetPoint" />
          </mxGeometry>
        </mxCell>
        <mxCell id="4OtoTD2fpRi7HfzD1Dlc-113" value="" style="endArrow=none;html=1;rounded=0;strokeWidth=1.5;" edge="1" parent="1">
          <mxGeometry width="50" height="50" relative="1" as="geometry">
            <mxPoint x="841.25" y="710" as="sourcePoint" />
            <mxPoint x="878.75" y="710" as="targetPoint" />
          </mxGeometry>
        </mxCell>
        <mxCell id="4OtoTD2fpRi7HfzD1Dlc-114" value="" style="endArrow=none;html=1;rounded=0;strokeWidth=1.5;" edge="1" parent="1">
          <mxGeometry width="50" height="50" relative="1" as="geometry">
            <mxPoint x="878.75" y="710" as="sourcePoint" />
            <mxPoint x="910" y="660" as="targetPoint" />
          </mxGeometry>
        </mxCell>
        <mxCell id="4OtoTD2fpRi7HfzD1Dlc-115" value="" style="endArrow=none;html=1;rounded=0;strokeWidth=1.5;" edge="1" parent="1">
          <mxGeometry width="50" height="50" relative="1" as="geometry">
            <mxPoint x="810" y="660" as="sourcePoint" />
            <mxPoint x="841.25" y="710" as="targetPoint" />
          </mxGeometry>
        </mxCell>
        <mxCell id="4OtoTD2fpRi7HfzD1Dlc-116" value="" style="endArrow=none;html=1;rounded=0;strokeWidth=1.5;" edge="1" parent="1">
          <mxGeometry width="50" height="50" relative="1" as="geometry">
            <mxPoint x="847.5" y="660" as="sourcePoint" />
            <mxPoint x="860" y="678.75" as="targetPoint" />
          </mxGeometry>
        </mxCell>
        <mxCell id="4OtoTD2fpRi7HfzD1Dlc-117" value="" style="endArrow=none;html=1;rounded=0;strokeWidth=1.5;" edge="1" parent="1">
          <mxGeometry width="50" height="50" relative="1" as="geometry">
            <mxPoint x="872.5" y="660" as="sourcePoint" />
            <mxPoint x="860" y="678.75" as="targetPoint" />
          </mxGeometry>
        </mxCell>
        <mxCell id="4OtoTD2fpRi7HfzD1Dlc-118" value="" style="endArrow=none;html=1;rounded=0;strokeWidth=1.5;" edge="1" parent="1">
          <mxGeometry width="50" height="50" relative="1" as="geometry">
            <mxPoint x="980" y="660" as="sourcePoint" />
            <mxPoint x="1017.5" y="660" as="targetPoint" />
          </mxGeometry>
        </mxCell>
        <mxCell id="4OtoTD2fpRi7HfzD1Dlc-119" value="" style="endArrow=none;html=1;rounded=0;strokeWidth=1.5;" edge="1" parent="1">
          <mxGeometry width="50" height="50" relative="1" as="geometry">
            <mxPoint x="1042.5" y="660" as="sourcePoint" />
            <mxPoint x="1080" y="660" as="targetPoint" />
          </mxGeometry>
        </mxCell>
        <mxCell id="4OtoTD2fpRi7HfzD1Dlc-120" value="" style="endArrow=none;html=1;rounded=0;strokeWidth=1.5;" edge="1" parent="1">
          <mxGeometry width="50" height="50" relative="1" as="geometry">
            <mxPoint x="1011.25" y="710" as="sourcePoint" />
            <mxPoint x="1048.75" y="710" as="targetPoint" />
          </mxGeometry>
        </mxCell>
        <mxCell id="4OtoTD2fpRi7HfzD1Dlc-121" value="" style="endArrow=none;html=1;rounded=0;strokeWidth=1.5;" edge="1" parent="1">
          <mxGeometry width="50" height="50" relative="1" as="geometry">
            <mxPoint x="1048.75" y="710" as="sourcePoint" />
            <mxPoint x="1080" y="660" as="targetPoint" />
          </mxGeometry>
        </mxCell>
        <mxCell id="4OtoTD2fpRi7HfzD1Dlc-122" value="" style="endArrow=none;html=1;rounded=0;strokeWidth=1.5;" edge="1" parent="1">
          <mxGeometry width="50" height="50" relative="1" as="geometry">
            <mxPoint x="980" y="660" as="sourcePoint" />
            <mxPoint x="1011.25" y="710" as="targetPoint" />
          </mxGeometry>
        </mxCell>
        <mxCell id="4OtoTD2fpRi7HfzD1Dlc-123" value="" style="endArrow=none;html=1;rounded=0;strokeWidth=1.5;" edge="1" parent="1">
          <mxGeometry width="50" height="50" relative="1" as="geometry">
            <mxPoint x="1017.5" y="660" as="sourcePoint" />
            <mxPoint x="1030" y="678.75" as="targetPoint" />
          </mxGeometry>
        </mxCell>
        <mxCell id="4OtoTD2fpRi7HfzD1Dlc-124" value="" style="endArrow=none;html=1;rounded=0;strokeWidth=1.5;" edge="1" parent="1">
          <mxGeometry width="50" height="50" relative="1" as="geometry">
            <mxPoint x="1042.5" y="660" as="sourcePoint" />
            <mxPoint x="1030" y="678.75" as="targetPoint" />
          </mxGeometry>
        </mxCell>
        <mxCell id="4OtoTD2fpRi7HfzD1Dlc-125" value="" style="endArrow=none;html=1;rounded=0;strokeWidth=1.5;" edge="1" parent="1">
          <mxGeometry width="50" height="50" relative="1" as="geometry">
            <mxPoint x="1150" y="660" as="sourcePoint" />
            <mxPoint x="1187.5" y="660" as="targetPoint" />
          </mxGeometry>
        </mxCell>
        <mxCell id="4OtoTD2fpRi7HfzD1Dlc-126" value="" style="endArrow=none;html=1;rounded=0;strokeWidth=1.5;" edge="1" parent="1">
          <mxGeometry width="50" height="50" relative="1" as="geometry">
            <mxPoint x="1212.5" y="660" as="sourcePoint" />
            <mxPoint x="1250" y="660" as="targetPoint" />
          </mxGeometry>
        </mxCell>
        <mxCell id="4OtoTD2fpRi7HfzD1Dlc-127" value="" style="endArrow=none;html=1;rounded=0;strokeWidth=1.5;" edge="1" parent="1">
          <mxGeometry width="50" height="50" relative="1" as="geometry">
            <mxPoint x="1181.25" y="710" as="sourcePoint" />
            <mxPoint x="1218.75" y="710" as="targetPoint" />
          </mxGeometry>
        </mxCell>
        <mxCell id="4OtoTD2fpRi7HfzD1Dlc-128" value="" style="endArrow=none;html=1;rounded=0;strokeWidth=1.5;" edge="1" parent="1">
          <mxGeometry width="50" height="50" relative="1" as="geometry">
            <mxPoint x="1218.75" y="710" as="sourcePoint" />
            <mxPoint x="1250" y="660" as="targetPoint" />
          </mxGeometry>
        </mxCell>
        <mxCell id="4OtoTD2fpRi7HfzD1Dlc-129" value="" style="endArrow=none;html=1;rounded=0;strokeWidth=1.5;" edge="1" parent="1">
          <mxGeometry width="50" height="50" relative="1" as="geometry">
            <mxPoint x="1150" y="660" as="sourcePoint" />
            <mxPoint x="1181.25" y="710" as="targetPoint" />
          </mxGeometry>
        </mxCell>
        <mxCell id="4OtoTD2fpRi7HfzD1Dlc-130" value="" style="endArrow=none;html=1;rounded=0;strokeWidth=1.5;" edge="1" parent="1">
          <mxGeometry width="50" height="50" relative="1" as="geometry">
            <mxPoint x="1187.5" y="660" as="sourcePoint" />
            <mxPoint x="1200" y="678.75" as="targetPoint" />
          </mxGeometry>
        </mxCell>
        <mxCell id="4OtoTD2fpRi7HfzD1Dlc-131" value="" style="endArrow=none;html=1;rounded=0;strokeWidth=1.5;" edge="1" parent="1">
          <mxGeometry width="50" height="50" relative="1" as="geometry">
            <mxPoint x="1212.5" y="660" as="sourcePoint" />
            <mxPoint x="1200" y="678.75" as="targetPoint" />
          </mxGeometry>
        </mxCell>
        <mxCell id="4OtoTD2fpRi7HfzD1Dlc-132" value="" style="endArrow=none;html=1;rounded=0;strokeWidth=1.5;" edge="1" parent="1">
          <mxGeometry width="50" height="50" relative="1" as="geometry">
            <mxPoint x="1320" y="660" as="sourcePoint" />
            <mxPoint x="1357.5" y="660" as="targetPoint" />
          </mxGeometry>
        </mxCell>
        <mxCell id="4OtoTD2fpRi7HfzD1Dlc-133" value="" style="endArrow=none;html=1;rounded=0;strokeWidth=1.5;" edge="1" parent="1">
          <mxGeometry width="50" height="50" relative="1" as="geometry">
            <mxPoint x="1382.5" y="660" as="sourcePoint" />
            <mxPoint x="1420" y="660" as="targetPoint" />
          </mxGeometry>
        </mxCell>
        <mxCell id="4OtoTD2fpRi7HfzD1Dlc-134" value="" style="endArrow=none;html=1;rounded=0;strokeWidth=1.5;" edge="1" parent="1">
          <mxGeometry width="50" height="50" relative="1" as="geometry">
            <mxPoint x="1351.25" y="710" as="sourcePoint" />
            <mxPoint x="1388.75" y="710" as="targetPoint" />
          </mxGeometry>
        </mxCell>
        <mxCell id="4OtoTD2fpRi7HfzD1Dlc-135" value="" style="endArrow=none;html=1;rounded=0;strokeWidth=1.5;" edge="1" parent="1">
          <mxGeometry width="50" height="50" relative="1" as="geometry">
            <mxPoint x="1388.75" y="710" as="sourcePoint" />
            <mxPoint x="1420" y="660" as="targetPoint" />
          </mxGeometry>
        </mxCell>
        <mxCell id="4OtoTD2fpRi7HfzD1Dlc-136" value="" style="endArrow=none;html=1;rounded=0;strokeWidth=1.5;" edge="1" parent="1">
          <mxGeometry width="50" height="50" relative="1" as="geometry">
            <mxPoint x="1320" y="660" as="sourcePoint" />
            <mxPoint x="1351.25" y="710" as="targetPoint" />
          </mxGeometry>
        </mxCell>
        <mxCell id="4OtoTD2fpRi7HfzD1Dlc-137" value="" style="endArrow=none;html=1;rounded=0;strokeWidth=1.5;" edge="1" parent="1">
          <mxGeometry width="50" height="50" relative="1" as="geometry">
            <mxPoint x="1357.5" y="660" as="sourcePoint" />
            <mxPoint x="1370" y="678.75" as="targetPoint" />
          </mxGeometry>
        </mxCell>
        <mxCell id="4OtoTD2fpRi7HfzD1Dlc-138" value="" style="endArrow=none;html=1;rounded=0;strokeWidth=1.5;" edge="1" parent="1">
          <mxGeometry width="50" height="50" relative="1" as="geometry">
            <mxPoint x="1382.5" y="660" as="sourcePoint" />
            <mxPoint x="1370" y="678.75" as="targetPoint" />
          </mxGeometry>
        </mxCell>
        <mxCell id="4OtoTD2fpRi7HfzD1Dlc-139" value="" style="endArrow=none;html=1;rounded=0;strokeWidth=1.5;" edge="1" parent="1">
          <mxGeometry width="50" height="50" relative="1" as="geometry">
            <mxPoint x="1490" y="660" as="sourcePoint" />
            <mxPoint x="1527.5" y="660" as="targetPoint" />
          </mxGeometry>
        </mxCell>
        <mxCell id="4OtoTD2fpRi7HfzD1Dlc-140" value="" style="endArrow=none;html=1;rounded=0;strokeWidth=1.5;" edge="1" parent="1">
          <mxGeometry width="50" height="50" relative="1" as="geometry">
            <mxPoint x="1552.5" y="660" as="sourcePoint" />
            <mxPoint x="1590" y="660" as="targetPoint" />
          </mxGeometry>
        </mxCell>
        <mxCell id="4OtoTD2fpRi7HfzD1Dlc-141" value="" style="endArrow=none;html=1;rounded=0;strokeWidth=1.5;" edge="1" parent="1">
          <mxGeometry width="50" height="50" relative="1" as="geometry">
            <mxPoint x="1521.25" y="710" as="sourcePoint" />
            <mxPoint x="1558.75" y="710" as="targetPoint" />
          </mxGeometry>
        </mxCell>
        <mxCell id="4OtoTD2fpRi7HfzD1Dlc-142" value="" style="endArrow=none;html=1;rounded=0;strokeWidth=1.5;" edge="1" parent="1">
          <mxGeometry width="50" height="50" relative="1" as="geometry">
            <mxPoint x="1558.75" y="710" as="sourcePoint" />
            <mxPoint x="1590" y="660" as="targetPoint" />
          </mxGeometry>
        </mxCell>
        <mxCell id="4OtoTD2fpRi7HfzD1Dlc-143" value="" style="endArrow=none;html=1;rounded=0;strokeWidth=1.5;" edge="1" parent="1">
          <mxGeometry width="50" height="50" relative="1" as="geometry">
            <mxPoint x="1490" y="660" as="sourcePoint" />
            <mxPoint x="1521.25" y="710" as="targetPoint" />
          </mxGeometry>
        </mxCell>
        <mxCell id="4OtoTD2fpRi7HfzD1Dlc-144" value="" style="endArrow=none;html=1;rounded=0;strokeWidth=1.5;" edge="1" parent="1">
          <mxGeometry width="50" height="50" relative="1" as="geometry">
            <mxPoint x="1527.5" y="660" as="sourcePoint" />
            <mxPoint x="1540" y="678.75" as="targetPoint" />
          </mxGeometry>
        </mxCell>
        <mxCell id="4OtoTD2fpRi7HfzD1Dlc-145" value="" style="endArrow=none;html=1;rounded=0;strokeWidth=1.5;" edge="1" parent="1">
          <mxGeometry width="50" height="50" relative="1" as="geometry">
            <mxPoint x="1552.5" y="660" as="sourcePoint" />
            <mxPoint x="1540" y="678.75" as="targetPoint" />
          </mxGeometry>
        </mxCell>
        <mxCell id="4OtoTD2fpRi7HfzD1Dlc-146" value="" style="endArrow=none;html=1;rounded=0;strokeWidth=1.5;" edge="1" parent="1">
          <mxGeometry width="50" height="50" relative="1" as="geometry">
            <mxPoint x="1670" y="660" as="sourcePoint" />
            <mxPoint x="1707.5" y="660" as="targetPoint" />
          </mxGeometry>
        </mxCell>
        <mxCell id="4OtoTD2fpRi7HfzD1Dlc-147" value="" style="endArrow=none;html=1;rounded=0;strokeWidth=1.5;" edge="1" parent="1">
          <mxGeometry width="50" height="50" relative="1" as="geometry">
            <mxPoint x="1732.5" y="660" as="sourcePoint" />
            <mxPoint x="1770" y="660" as="targetPoint" />
          </mxGeometry>
        </mxCell>
        <mxCell id="4OtoTD2fpRi7HfzD1Dlc-148" value="" style="endArrow=none;html=1;rounded=0;strokeWidth=1.5;" edge="1" parent="1">
          <mxGeometry width="50" height="50" relative="1" as="geometry">
            <mxPoint x="1701.25" y="710" as="sourcePoint" />
            <mxPoint x="1738.75" y="710" as="targetPoint" />
          </mxGeometry>
        </mxCell>
        <mxCell id="4OtoTD2fpRi7HfzD1Dlc-149" value="" style="endArrow=none;html=1;rounded=0;strokeWidth=1.5;" edge="1" parent="1">
          <mxGeometry width="50" height="50" relative="1" as="geometry">
            <mxPoint x="1738.75" y="710" as="sourcePoint" />
            <mxPoint x="1770" y="660" as="targetPoint" />
          </mxGeometry>
        </mxCell>
        <mxCell id="4OtoTD2fpRi7HfzD1Dlc-150" value="" style="endArrow=none;html=1;rounded=0;strokeWidth=1.5;" edge="1" parent="1">
          <mxGeometry width="50" height="50" relative="1" as="geometry">
            <mxPoint x="1670" y="660" as="sourcePoint" />
            <mxPoint x="1701.25" y="710" as="targetPoint" />
          </mxGeometry>
        </mxCell>
        <mxCell id="4OtoTD2fpRi7HfzD1Dlc-151" value="" style="endArrow=none;html=1;rounded=0;strokeWidth=1.5;" edge="1" parent="1">
          <mxGeometry width="50" height="50" relative="1" as="geometry">
            <mxPoint x="1707.5" y="660" as="sourcePoint" />
            <mxPoint x="1720" y="678.75" as="targetPoint" />
          </mxGeometry>
        </mxCell>
        <mxCell id="4OtoTD2fpRi7HfzD1Dlc-152" value="" style="endArrow=none;html=1;rounded=0;strokeWidth=1.5;" edge="1" parent="1">
          <mxGeometry width="50" height="50" relative="1" as="geometry">
            <mxPoint x="1732.5" y="660" as="sourcePoint" />
            <mxPoint x="1720" y="678.75" as="targetPoint" />
          </mxGeometry>
        </mxCell>
        <mxCell id="4OtoTD2fpRi7HfzD1Dlc-153" value="" style="endArrow=none;html=1;rounded=0;strokeWidth=1.5;" edge="1" parent="1">
          <mxGeometry width="50" height="50" relative="1" as="geometry">
            <mxPoint x="1840" y="660" as="sourcePoint" />
            <mxPoint x="1877.5" y="660" as="targetPoint" />
          </mxGeometry>
        </mxCell>
        <mxCell id="4OtoTD2fpRi7HfzD1Dlc-154" value="" style="endArrow=none;html=1;rounded=0;strokeWidth=1.5;" edge="1" parent="1">
          <mxGeometry width="50" height="50" relative="1" as="geometry">
            <mxPoint x="1902.5" y="660" as="sourcePoint" />
            <mxPoint x="1940" y="660" as="targetPoint" />
          </mxGeometry>
        </mxCell>
        <mxCell id="4OtoTD2fpRi7HfzD1Dlc-155" value="" style="endArrow=none;html=1;rounded=0;strokeWidth=1.5;" edge="1" parent="1">
          <mxGeometry width="50" height="50" relative="1" as="geometry">
            <mxPoint x="1871.25" y="710" as="sourcePoint" />
            <mxPoint x="1908.75" y="710" as="targetPoint" />
          </mxGeometry>
        </mxCell>
        <mxCell id="4OtoTD2fpRi7HfzD1Dlc-156" value="" style="endArrow=none;html=1;rounded=0;strokeWidth=1.5;" edge="1" parent="1">
          <mxGeometry width="50" height="50" relative="1" as="geometry">
            <mxPoint x="1908.75" y="710" as="sourcePoint" />
            <mxPoint x="1940" y="660" as="targetPoint" />
          </mxGeometry>
        </mxCell>
        <mxCell id="4OtoTD2fpRi7HfzD1Dlc-157" value="" style="endArrow=none;html=1;rounded=0;strokeWidth=1.5;" edge="1" parent="1">
          <mxGeometry width="50" height="50" relative="1" as="geometry">
            <mxPoint x="1840" y="660" as="sourcePoint" />
            <mxPoint x="1871.25" y="710" as="targetPoint" />
          </mxGeometry>
        </mxCell>
        <mxCell id="4OtoTD2fpRi7HfzD1Dlc-158" value="" style="endArrow=none;html=1;rounded=0;strokeWidth=1.5;" edge="1" parent="1">
          <mxGeometry width="50" height="50" relative="1" as="geometry">
            <mxPoint x="1877.5" y="660" as="sourcePoint" />
            <mxPoint x="1890" y="678.75" as="targetPoint" />
          </mxGeometry>
        </mxCell>
        <mxCell id="4OtoTD2fpRi7HfzD1Dlc-159" value="" style="endArrow=none;html=1;rounded=0;strokeWidth=1.5;" edge="1" parent="1">
          <mxGeometry width="50" height="50" relative="1" as="geometry">
            <mxPoint x="1902.5" y="660" as="sourcePoint" />
            <mxPoint x="1890" y="678.75" as="targetPoint" />
          </mxGeometry>
        </mxCell>
        <mxCell id="4OtoTD2fpRi7HfzD1Dlc-160" value="" style="endArrow=none;html=1;rounded=0;strokeWidth=1.5;" edge="1" parent="1">
          <mxGeometry width="50" height="50" relative="1" as="geometry">
            <mxPoint x="2010" y="660" as="sourcePoint" />
            <mxPoint x="2047.5" y="660" as="targetPoint" />
          </mxGeometry>
        </mxCell>
        <mxCell id="4OtoTD2fpRi7HfzD1Dlc-161" value="" style="endArrow=none;html=1;rounded=0;strokeWidth=1.5;" edge="1" parent="1">
          <mxGeometry width="50" height="50" relative="1" as="geometry">
            <mxPoint x="2072.5" y="660" as="sourcePoint" />
            <mxPoint x="2110" y="660" as="targetPoint" />
          </mxGeometry>
        </mxCell>
        <mxCell id="4OtoTD2fpRi7HfzD1Dlc-162" value="" style="endArrow=none;html=1;rounded=0;strokeWidth=1.5;" edge="1" parent="1">
          <mxGeometry width="50" height="50" relative="1" as="geometry">
            <mxPoint x="2041.25" y="710" as="sourcePoint" />
            <mxPoint x="2078.75" y="710" as="targetPoint" />
          </mxGeometry>
        </mxCell>
        <mxCell id="4OtoTD2fpRi7HfzD1Dlc-163" value="" style="endArrow=none;html=1;rounded=0;strokeWidth=1.5;" edge="1" parent="1">
          <mxGeometry width="50" height="50" relative="1" as="geometry">
            <mxPoint x="2078.75" y="710" as="sourcePoint" />
            <mxPoint x="2110" y="660" as="targetPoint" />
          </mxGeometry>
        </mxCell>
        <mxCell id="4OtoTD2fpRi7HfzD1Dlc-164" value="" style="endArrow=none;html=1;rounded=0;strokeWidth=1.5;" edge="1" parent="1">
          <mxGeometry width="50" height="50" relative="1" as="geometry">
            <mxPoint x="2010" y="660" as="sourcePoint" />
            <mxPoint x="2041.25" y="710" as="targetPoint" />
          </mxGeometry>
        </mxCell>
        <mxCell id="4OtoTD2fpRi7HfzD1Dlc-165" value="" style="endArrow=none;html=1;rounded=0;strokeWidth=1.5;" edge="1" parent="1">
          <mxGeometry width="50" height="50" relative="1" as="geometry">
            <mxPoint x="2047.5" y="660" as="sourcePoint" />
            <mxPoint x="2060" y="678.75" as="targetPoint" />
          </mxGeometry>
        </mxCell>
        <mxCell id="4OtoTD2fpRi7HfzD1Dlc-166" value="" style="endArrow=none;html=1;rounded=0;strokeWidth=1.5;" edge="1" parent="1">
          <mxGeometry width="50" height="50" relative="1" as="geometry">
            <mxPoint x="2072.5" y="660" as="sourcePoint" />
            <mxPoint x="2060" y="678.75" as="targetPoint" />
          </mxGeometry>
        </mxCell>
        <mxCell id="4OtoTD2fpRi7HfzD1Dlc-167" value="" style="endArrow=none;html=1;rounded=0;entryX=0.5;entryY=1;entryDx=0;entryDy=0;" edge="1" parent="1" target="4OtoTD2fpRi7HfzD1Dlc-47">
          <mxGeometry width="50" height="50" relative="1" as="geometry">
            <mxPoint x="350" y="630" as="sourcePoint" />
            <mxPoint x="370" y="620" as="targetPoint" />
          </mxGeometry>
        </mxCell>
        <mxCell id="4OtoTD2fpRi7HfzD1Dlc-168" value="" style="endArrow=none;html=1;rounded=0;" edge="1" parent="1">
          <mxGeometry width="50" height="50" relative="1" as="geometry">
            <mxPoint x="350" y="630" as="sourcePoint" />
            <mxPoint x="480" y="630" as="targetPoint" />
          </mxGeometry>
        </mxCell>
        <mxCell id="4OtoTD2fpRi7HfzD1Dlc-169" value="" style="endArrow=none;html=1;rounded=0;" edge="1" parent="1">
          <mxGeometry width="50" height="50" relative="1" as="geometry">
            <mxPoint x="480" y="660" as="sourcePoint" />
            <mxPoint x="480" y="630" as="targetPoint" />
          </mxGeometry>
        </mxCell>
        <mxCell id="4OtoTD2fpRi7HfzD1Dlc-170" value="" style="endArrow=none;html=1;rounded=0;" edge="1" parent="1">
          <mxGeometry width="50" height="50" relative="1" as="geometry">
            <mxPoint x="510" y="750" as="sourcePoint" />
            <mxPoint x="510" y="710" as="targetPoint" />
          </mxGeometry>
        </mxCell>
        <mxCell id="4OtoTD2fpRi7HfzD1Dlc-171" value="" style="endArrow=none;html=1;rounded=0;" edge="1" parent="1">
          <mxGeometry width="50" height="50" relative="1" as="geometry">
            <mxPoint x="659.31" y="660" as="sourcePoint" />
            <mxPoint x="659.31" y="630" as="targetPoint" />
          </mxGeometry>
        </mxCell>
        <mxCell id="4OtoTD2fpRi7HfzD1Dlc-172" value="" style="endArrow=none;html=1;rounded=0;" edge="1" parent="1">
          <mxGeometry width="50" height="50" relative="1" as="geometry">
            <mxPoint x="830" y="660" as="sourcePoint" />
            <mxPoint x="830" y="630" as="targetPoint" />
          </mxGeometry>
        </mxCell>
        <mxCell id="4OtoTD2fpRi7HfzD1Dlc-173" value="" style="endArrow=none;html=1;rounded=0;" edge="1" parent="1">
          <mxGeometry width="50" height="50" relative="1" as="geometry">
            <mxPoint x="1000" y="660" as="sourcePoint" />
            <mxPoint x="1000" y="630" as="targetPoint" />
          </mxGeometry>
        </mxCell>
        <mxCell id="4OtoTD2fpRi7HfzD1Dlc-174" value="" style="endArrow=none;html=1;rounded=0;" edge="1" parent="1">
          <mxGeometry width="50" height="50" relative="1" as="geometry">
            <mxPoint x="1170" y="660" as="sourcePoint" />
            <mxPoint x="1170" y="630" as="targetPoint" />
          </mxGeometry>
        </mxCell>
        <mxCell id="4OtoTD2fpRi7HfzD1Dlc-175" value="" style="endArrow=none;html=1;rounded=0;" edge="1" parent="1">
          <mxGeometry width="50" height="50" relative="1" as="geometry">
            <mxPoint x="1339.31" y="660" as="sourcePoint" />
            <mxPoint x="1339.31" y="630" as="targetPoint" />
          </mxGeometry>
        </mxCell>
        <mxCell id="4OtoTD2fpRi7HfzD1Dlc-176" value="" style="endArrow=none;html=1;rounded=0;" edge="1" parent="1">
          <mxGeometry width="50" height="50" relative="1" as="geometry">
            <mxPoint x="1510" y="660" as="sourcePoint" />
            <mxPoint x="1510" y="630" as="targetPoint" />
          </mxGeometry>
        </mxCell>
        <mxCell id="4OtoTD2fpRi7HfzD1Dlc-177" value="" style="endArrow=none;html=1;rounded=0;" edge="1" parent="1">
          <mxGeometry width="50" height="50" relative="1" as="geometry">
            <mxPoint x="1689.31" y="660" as="sourcePoint" />
            <mxPoint x="1689.31" y="630" as="targetPoint" />
          </mxGeometry>
        </mxCell>
        <mxCell id="4OtoTD2fpRi7HfzD1Dlc-178" value="" style="endArrow=none;html=1;rounded=0;" edge="1" parent="1">
          <mxGeometry width="50" height="50" relative="1" as="geometry">
            <mxPoint x="1860" y="660" as="sourcePoint" />
            <mxPoint x="1860" y="630" as="targetPoint" />
          </mxGeometry>
        </mxCell>
        <mxCell id="4OtoTD2fpRi7HfzD1Dlc-179" value="" style="endArrow=none;html=1;rounded=0;" edge="1" parent="1">
          <mxGeometry width="50" height="50" relative="1" as="geometry">
            <mxPoint x="2030" y="660" as="sourcePoint" />
            <mxPoint x="2030" y="630" as="targetPoint" />
          </mxGeometry>
        </mxCell>
        <mxCell id="4OtoTD2fpRi7HfzD1Dlc-180" value="" style="endArrow=none;html=1;rounded=0;" edge="1" parent="1">
          <mxGeometry width="50" height="50" relative="1" as="geometry">
            <mxPoint x="689.66" y="750" as="sourcePoint" />
            <mxPoint x="689.66" y="710" as="targetPoint" />
          </mxGeometry>
        </mxCell>
        <mxCell id="4OtoTD2fpRi7HfzD1Dlc-181" value="" style="endArrow=none;html=1;rounded=0;" edge="1" parent="1">
          <mxGeometry width="50" height="50" relative="1" as="geometry">
            <mxPoint x="859.83" y="750" as="sourcePoint" />
            <mxPoint x="859.83" y="710" as="targetPoint" />
          </mxGeometry>
        </mxCell>
        <mxCell id="4OtoTD2fpRi7HfzD1Dlc-182" value="" style="endArrow=none;html=1;rounded=0;" edge="1" parent="1">
          <mxGeometry width="50" height="50" relative="1" as="geometry">
            <mxPoint x="1029.6599999999999" y="750" as="sourcePoint" />
            <mxPoint x="1029.6599999999999" y="710" as="targetPoint" />
          </mxGeometry>
        </mxCell>
        <mxCell id="4OtoTD2fpRi7HfzD1Dlc-183" value="" style="endArrow=none;html=1;rounded=0;" edge="1" parent="1">
          <mxGeometry width="50" height="50" relative="1" as="geometry">
            <mxPoint x="1199.83" y="750" as="sourcePoint" />
            <mxPoint x="1199.83" y="710" as="targetPoint" />
          </mxGeometry>
        </mxCell>
        <mxCell id="4OtoTD2fpRi7HfzD1Dlc-184" value="" style="endArrow=none;html=1;rounded=0;" edge="1" parent="1">
          <mxGeometry width="50" height="50" relative="1" as="geometry">
            <mxPoint x="1369.6599999999999" y="750" as="sourcePoint" />
            <mxPoint x="1369.6599999999999" y="710" as="targetPoint" />
          </mxGeometry>
        </mxCell>
        <mxCell id="4OtoTD2fpRi7HfzD1Dlc-185" value="" style="endArrow=none;html=1;rounded=0;" edge="1" parent="1">
          <mxGeometry width="50" height="50" relative="1" as="geometry">
            <mxPoint x="1539.66" y="750" as="sourcePoint" />
            <mxPoint x="1539.66" y="710" as="targetPoint" />
          </mxGeometry>
        </mxCell>
        <mxCell id="4OtoTD2fpRi7HfzD1Dlc-186" value="" style="endArrow=none;html=1;rounded=0;" edge="1" parent="1">
          <mxGeometry width="50" height="50" relative="1" as="geometry">
            <mxPoint x="1719.6599999999999" y="750" as="sourcePoint" />
            <mxPoint x="1719.6599999999999" y="710" as="targetPoint" />
          </mxGeometry>
        </mxCell>
        <mxCell id="4OtoTD2fpRi7HfzD1Dlc-187" value="" style="endArrow=none;html=1;rounded=0;" edge="1" parent="1">
          <mxGeometry width="50" height="50" relative="1" as="geometry">
            <mxPoint x="1890" y="750" as="sourcePoint" />
            <mxPoint x="1890" y="710" as="targetPoint" />
          </mxGeometry>
        </mxCell>
        <mxCell id="4OtoTD2fpRi7HfzD1Dlc-188" value="" style="endArrow=none;html=1;rounded=0;" edge="1" parent="1">
          <mxGeometry width="50" height="50" relative="1" as="geometry">
            <mxPoint x="2059.66" y="750" as="sourcePoint" />
            <mxPoint x="2059.66" y="710" as="targetPoint" />
          </mxGeometry>
        </mxCell>
        <mxCell id="4OtoTD2fpRi7HfzD1Dlc-189" value="" style="endArrow=none;html=1;rounded=0;" edge="1" parent="1">
          <mxGeometry width="50" height="50" relative="1" as="geometry">
            <mxPoint x="510" y="750" as="sourcePoint" />
            <mxPoint x="630" y="750" as="targetPoint" />
          </mxGeometry>
        </mxCell>
        <mxCell id="4OtoTD2fpRi7HfzD1Dlc-190" value="" style="endArrow=none;html=1;rounded=0;" edge="1" parent="1">
          <mxGeometry width="50" height="50" relative="1" as="geometry">
            <mxPoint x="690" y="750" as="sourcePoint" />
            <mxPoint x="800" y="750" as="targetPoint" />
          </mxGeometry>
        </mxCell>
        <mxCell id="4OtoTD2fpRi7HfzD1Dlc-191" value="" style="endArrow=none;html=1;rounded=0;" edge="1" parent="1">
          <mxGeometry width="50" height="50" relative="1" as="geometry">
            <mxPoint x="860" y="750" as="sourcePoint" />
            <mxPoint x="970" y="750" as="targetPoint" />
          </mxGeometry>
        </mxCell>
        <mxCell id="4OtoTD2fpRi7HfzD1Dlc-192" value="" style="endArrow=none;html=1;rounded=0;" edge="1" parent="1">
          <mxGeometry width="50" height="50" relative="1" as="geometry">
            <mxPoint x="1030" y="750" as="sourcePoint" />
            <mxPoint x="1140" y="750" as="targetPoint" />
          </mxGeometry>
        </mxCell>
        <mxCell id="4OtoTD2fpRi7HfzD1Dlc-193" value="" style="endArrow=none;html=1;rounded=0;" edge="1" parent="1">
          <mxGeometry width="50" height="50" relative="1" as="geometry">
            <mxPoint x="1200" y="750" as="sourcePoint" />
            <mxPoint x="1310" y="750" as="targetPoint" />
          </mxGeometry>
        </mxCell>
        <mxCell id="4OtoTD2fpRi7HfzD1Dlc-194" value="" style="endArrow=none;html=1;rounded=0;" edge="1" parent="1">
          <mxGeometry width="50" height="50" relative="1" as="geometry">
            <mxPoint x="1370" y="750" as="sourcePoint" />
            <mxPoint x="1480" y="750" as="targetPoint" />
          </mxGeometry>
        </mxCell>
        <mxCell id="4OtoTD2fpRi7HfzD1Dlc-195" value="" style="endArrow=none;html=1;rounded=0;" edge="1" parent="1">
          <mxGeometry width="50" height="50" relative="1" as="geometry">
            <mxPoint x="1540" y="750" as="sourcePoint" />
            <mxPoint x="1660" y="750" as="targetPoint" />
          </mxGeometry>
        </mxCell>
        <mxCell id="4OtoTD2fpRi7HfzD1Dlc-196" value="" style="endArrow=none;html=1;rounded=0;" edge="1" parent="1">
          <mxGeometry width="50" height="50" relative="1" as="geometry">
            <mxPoint x="1720" y="750" as="sourcePoint" />
            <mxPoint x="1830" y="750" as="targetPoint" />
          </mxGeometry>
        </mxCell>
        <mxCell id="4OtoTD2fpRi7HfzD1Dlc-197" value="" style="endArrow=none;html=1;rounded=0;" edge="1" parent="1">
          <mxGeometry width="50" height="50" relative="1" as="geometry">
            <mxPoint x="1890" y="750" as="sourcePoint" />
            <mxPoint x="2000" y="750" as="targetPoint" />
          </mxGeometry>
        </mxCell>
        <mxCell id="4OtoTD2fpRi7HfzD1Dlc-198" value="" style="endArrow=classic;html=1;rounded=0;endFill=1;" edge="1" parent="1">
          <mxGeometry width="50" height="50" relative="1" as="geometry">
            <mxPoint x="2060" y="750" as="sourcePoint" />
            <mxPoint x="2170" y="750" as="targetPoint" />
          </mxGeometry>
        </mxCell>
        <mxCell id="4OtoTD2fpRi7HfzD1Dlc-199" value="" style="endArrow=none;html=1;rounded=0;" edge="1" parent="1">
          <mxGeometry width="50" height="50" relative="1" as="geometry">
            <mxPoint x="630" y="750" as="sourcePoint" />
            <mxPoint x="630" y="630" as="targetPoint" />
          </mxGeometry>
        </mxCell>
        <mxCell id="4OtoTD2fpRi7HfzD1Dlc-200" value="" style="endArrow=none;html=1;rounded=0;" edge="1" parent="1">
          <mxGeometry width="50" height="50" relative="1" as="geometry">
            <mxPoint x="800" y="750" as="sourcePoint" />
            <mxPoint x="800" y="630" as="targetPoint" />
          </mxGeometry>
        </mxCell>
        <mxCell id="4OtoTD2fpRi7HfzD1Dlc-201" value="" style="endArrow=none;html=1;rounded=0;" edge="1" parent="1">
          <mxGeometry width="50" height="50" relative="1" as="geometry">
            <mxPoint x="970" y="750" as="sourcePoint" />
            <mxPoint x="970" y="630" as="targetPoint" />
          </mxGeometry>
        </mxCell>
        <mxCell id="4OtoTD2fpRi7HfzD1Dlc-202" value="" style="endArrow=none;html=1;rounded=0;" edge="1" parent="1">
          <mxGeometry width="50" height="50" relative="1" as="geometry">
            <mxPoint x="1140" y="750" as="sourcePoint" />
            <mxPoint x="1140" y="630" as="targetPoint" />
          </mxGeometry>
        </mxCell>
        <mxCell id="4OtoTD2fpRi7HfzD1Dlc-203" value="" style="endArrow=none;html=1;rounded=0;" edge="1" parent="1">
          <mxGeometry width="50" height="50" relative="1" as="geometry">
            <mxPoint x="1310" y="750" as="sourcePoint" />
            <mxPoint x="1310" y="630" as="targetPoint" />
          </mxGeometry>
        </mxCell>
        <mxCell id="4OtoTD2fpRi7HfzD1Dlc-204" value="" style="endArrow=none;html=1;rounded=0;" edge="1" parent="1">
          <mxGeometry width="50" height="50" relative="1" as="geometry">
            <mxPoint x="1480" y="750" as="sourcePoint" />
            <mxPoint x="1480" y="630" as="targetPoint" />
          </mxGeometry>
        </mxCell>
        <mxCell id="4OtoTD2fpRi7HfzD1Dlc-205" value="" style="endArrow=none;html=1;rounded=0;" edge="1" parent="1">
          <mxGeometry width="50" height="50" relative="1" as="geometry">
            <mxPoint x="1660" y="750" as="sourcePoint" />
            <mxPoint x="1660" y="630" as="targetPoint" />
          </mxGeometry>
        </mxCell>
        <mxCell id="4OtoTD2fpRi7HfzD1Dlc-206" value="" style="endArrow=none;html=1;rounded=0;" edge="1" parent="1">
          <mxGeometry width="50" height="50" relative="1" as="geometry">
            <mxPoint x="1830" y="750" as="sourcePoint" />
            <mxPoint x="1830" y="630" as="targetPoint" />
          </mxGeometry>
        </mxCell>
        <mxCell id="4OtoTD2fpRi7HfzD1Dlc-207" value="" style="endArrow=none;html=1;rounded=0;" edge="1" parent="1">
          <mxGeometry width="50" height="50" relative="1" as="geometry">
            <mxPoint x="2000" y="750" as="sourcePoint" />
            <mxPoint x="2000" y="630" as="targetPoint" />
          </mxGeometry>
        </mxCell>
        <mxCell id="4OtoTD2fpRi7HfzD1Dlc-208" value="" style="endArrow=none;html=1;rounded=0;" edge="1" parent="1">
          <mxGeometry width="50" height="50" relative="1" as="geometry">
            <mxPoint x="630" y="630" as="sourcePoint" />
            <mxPoint x="660" y="630" as="targetPoint" />
          </mxGeometry>
        </mxCell>
        <mxCell id="4OtoTD2fpRi7HfzD1Dlc-209" value="" style="endArrow=none;html=1;rounded=0;" edge="1" parent="1">
          <mxGeometry width="50" height="50" relative="1" as="geometry">
            <mxPoint x="800" y="630" as="sourcePoint" />
            <mxPoint x="830" y="630" as="targetPoint" />
          </mxGeometry>
        </mxCell>
        <mxCell id="4OtoTD2fpRi7HfzD1Dlc-210" value="" style="endArrow=none;html=1;rounded=0;" edge="1" parent="1">
          <mxGeometry width="50" height="50" relative="1" as="geometry">
            <mxPoint x="970" y="630" as="sourcePoint" />
            <mxPoint x="1000" y="630" as="targetPoint" />
          </mxGeometry>
        </mxCell>
        <mxCell id="4OtoTD2fpRi7HfzD1Dlc-211" value="" style="endArrow=none;html=1;rounded=0;" edge="1" parent="1">
          <mxGeometry width="50" height="50" relative="1" as="geometry">
            <mxPoint x="1140" y="630" as="sourcePoint" />
            <mxPoint x="1170" y="630" as="targetPoint" />
          </mxGeometry>
        </mxCell>
        <mxCell id="4OtoTD2fpRi7HfzD1Dlc-212" value="" style="endArrow=none;html=1;rounded=0;" edge="1" parent="1">
          <mxGeometry width="50" height="50" relative="1" as="geometry">
            <mxPoint x="1310" y="630" as="sourcePoint" />
            <mxPoint x="1340" y="630" as="targetPoint" />
          </mxGeometry>
        </mxCell>
        <mxCell id="4OtoTD2fpRi7HfzD1Dlc-213" value="" style="endArrow=none;html=1;rounded=0;" edge="1" parent="1">
          <mxGeometry width="50" height="50" relative="1" as="geometry">
            <mxPoint x="1480" y="630" as="sourcePoint" />
            <mxPoint x="1510" y="630" as="targetPoint" />
          </mxGeometry>
        </mxCell>
        <mxCell id="4OtoTD2fpRi7HfzD1Dlc-214" value="" style="endArrow=none;html=1;rounded=0;" edge="1" parent="1">
          <mxGeometry width="50" height="50" relative="1" as="geometry">
            <mxPoint x="1660" y="630" as="sourcePoint" />
            <mxPoint x="1690" y="630" as="targetPoint" />
          </mxGeometry>
        </mxCell>
        <mxCell id="4OtoTD2fpRi7HfzD1Dlc-215" value="" style="endArrow=none;html=1;rounded=0;" edge="1" parent="1">
          <mxGeometry width="50" height="50" relative="1" as="geometry">
            <mxPoint x="1830" y="630" as="sourcePoint" />
            <mxPoint x="1860" y="630" as="targetPoint" />
          </mxGeometry>
        </mxCell>
        <mxCell id="4OtoTD2fpRi7HfzD1Dlc-216" value="" style="endArrow=none;html=1;rounded=0;" edge="1" parent="1">
          <mxGeometry width="50" height="50" relative="1" as="geometry">
            <mxPoint x="2000" y="630" as="sourcePoint" />
            <mxPoint x="2030" y="630" as="targetPoint" />
          </mxGeometry>
        </mxCell>
        <mxCell id="4OtoTD2fpRi7HfzD1Dlc-217" value="" style="endArrow=none;html=1;rounded=0;" edge="1" parent="1">
          <mxGeometry width="50" height="50" relative="1" as="geometry">
            <mxPoint x="510" y="630" as="sourcePoint" />
            <mxPoint x="509.65999999999997" y="610" as="targetPoint" />
          </mxGeometry>
        </mxCell>
        <mxCell id="4OtoTD2fpRi7HfzD1Dlc-218" value="" style="endArrow=none;html=1;rounded=0;" edge="1" parent="1">
          <mxGeometry width="50" height="50" relative="1" as="geometry">
            <mxPoint x="539.31" y="660" as="sourcePoint" />
            <mxPoint x="539.31" y="630" as="targetPoint" />
          </mxGeometry>
        </mxCell>
        <mxCell id="4OtoTD2fpRi7HfzD1Dlc-219" value="" style="endArrow=none;html=1;rounded=0;" edge="1" parent="1">
          <mxGeometry width="50" height="50" relative="1" as="geometry">
            <mxPoint x="510" y="630" as="sourcePoint" />
            <mxPoint x="540" y="630" as="targetPoint" />
          </mxGeometry>
        </mxCell>
        <mxCell id="4OtoTD2fpRi7HfzD1Dlc-220" value="" style="endArrow=none;html=1;rounded=0;" edge="1" parent="1">
          <mxGeometry width="50" height="50" relative="1" as="geometry">
            <mxPoint x="690" y="630" as="sourcePoint" />
            <mxPoint x="689.66" y="610" as="targetPoint" />
          </mxGeometry>
        </mxCell>
        <mxCell id="4OtoTD2fpRi7HfzD1Dlc-221" value="" style="endArrow=none;html=1;rounded=0;" edge="1" parent="1">
          <mxGeometry width="50" height="50" relative="1" as="geometry">
            <mxPoint x="719.31" y="660" as="sourcePoint" />
            <mxPoint x="719.31" y="630" as="targetPoint" />
          </mxGeometry>
        </mxCell>
        <mxCell id="4OtoTD2fpRi7HfzD1Dlc-222" value="" style="endArrow=none;html=1;rounded=0;" edge="1" parent="1">
          <mxGeometry width="50" height="50" relative="1" as="geometry">
            <mxPoint x="690" y="630" as="sourcePoint" />
            <mxPoint x="720" y="630" as="targetPoint" />
          </mxGeometry>
        </mxCell>
        <mxCell id="4OtoTD2fpRi7HfzD1Dlc-223" value="" style="endArrow=none;html=1;rounded=0;" edge="1" parent="1">
          <mxGeometry width="50" height="50" relative="1" as="geometry">
            <mxPoint x="860.34" y="630" as="sourcePoint" />
            <mxPoint x="860" y="610" as="targetPoint" />
          </mxGeometry>
        </mxCell>
        <mxCell id="4OtoTD2fpRi7HfzD1Dlc-224" value="" style="endArrow=none;html=1;rounded=0;" edge="1" parent="1">
          <mxGeometry width="50" height="50" relative="1" as="geometry">
            <mxPoint x="889.6500000000001" y="660" as="sourcePoint" />
            <mxPoint x="889.6500000000001" y="630" as="targetPoint" />
          </mxGeometry>
        </mxCell>
        <mxCell id="4OtoTD2fpRi7HfzD1Dlc-225" value="" style="endArrow=none;html=1;rounded=0;" edge="1" parent="1">
          <mxGeometry width="50" height="50" relative="1" as="geometry">
            <mxPoint x="860.34" y="630" as="sourcePoint" />
            <mxPoint x="890.34" y="630" as="targetPoint" />
          </mxGeometry>
        </mxCell>
        <mxCell id="4OtoTD2fpRi7HfzD1Dlc-226" value="" style="endArrow=none;html=1;rounded=0;" edge="1" parent="1">
          <mxGeometry width="50" height="50" relative="1" as="geometry">
            <mxPoint x="1030" y="630" as="sourcePoint" />
            <mxPoint x="1029.6599999999999" y="610" as="targetPoint" />
          </mxGeometry>
        </mxCell>
        <mxCell id="4OtoTD2fpRi7HfzD1Dlc-227" value="" style="endArrow=none;html=1;rounded=0;" edge="1" parent="1">
          <mxGeometry width="50" height="50" relative="1" as="geometry">
            <mxPoint x="1059.31" y="660" as="sourcePoint" />
            <mxPoint x="1059.31" y="630" as="targetPoint" />
          </mxGeometry>
        </mxCell>
        <mxCell id="4OtoTD2fpRi7HfzD1Dlc-228" value="" style="endArrow=none;html=1;rounded=0;" edge="1" parent="1">
          <mxGeometry width="50" height="50" relative="1" as="geometry">
            <mxPoint x="1030" y="630" as="sourcePoint" />
            <mxPoint x="1060" y="630" as="targetPoint" />
          </mxGeometry>
        </mxCell>
        <mxCell id="4OtoTD2fpRi7HfzD1Dlc-229" value="" style="endArrow=none;html=1;rounded=0;" edge="1" parent="1">
          <mxGeometry width="50" height="50" relative="1" as="geometry">
            <mxPoint x="1200" y="630" as="sourcePoint" />
            <mxPoint x="1199.6599999999999" y="610" as="targetPoint" />
          </mxGeometry>
        </mxCell>
        <mxCell id="4OtoTD2fpRi7HfzD1Dlc-230" value="" style="endArrow=none;html=1;rounded=0;" edge="1" parent="1">
          <mxGeometry width="50" height="50" relative="1" as="geometry">
            <mxPoint x="1229.31" y="660" as="sourcePoint" />
            <mxPoint x="1229.31" y="630" as="targetPoint" />
          </mxGeometry>
        </mxCell>
        <mxCell id="4OtoTD2fpRi7HfzD1Dlc-231" value="" style="endArrow=none;html=1;rounded=0;" edge="1" parent="1">
          <mxGeometry width="50" height="50" relative="1" as="geometry">
            <mxPoint x="1200" y="630" as="sourcePoint" />
            <mxPoint x="1230" y="630" as="targetPoint" />
          </mxGeometry>
        </mxCell>
        <mxCell id="4OtoTD2fpRi7HfzD1Dlc-232" value="" style="endArrow=none;html=1;rounded=0;" edge="1" parent="1">
          <mxGeometry width="50" height="50" relative="1" as="geometry">
            <mxPoint x="1370.0000000000002" y="630" as="sourcePoint" />
            <mxPoint x="1369.66" y="610" as="targetPoint" />
          </mxGeometry>
        </mxCell>
        <mxCell id="4OtoTD2fpRi7HfzD1Dlc-233" value="" style="endArrow=none;html=1;rounded=0;" edge="1" parent="1">
          <mxGeometry width="50" height="50" relative="1" as="geometry">
            <mxPoint x="1399.3100000000002" y="660" as="sourcePoint" />
            <mxPoint x="1399.3100000000002" y="630" as="targetPoint" />
          </mxGeometry>
        </mxCell>
        <mxCell id="4OtoTD2fpRi7HfzD1Dlc-234" value="" style="endArrow=none;html=1;rounded=0;" edge="1" parent="1">
          <mxGeometry width="50" height="50" relative="1" as="geometry">
            <mxPoint x="1370.0000000000002" y="630" as="sourcePoint" />
            <mxPoint x="1400.0000000000002" y="630" as="targetPoint" />
          </mxGeometry>
        </mxCell>
        <mxCell id="4OtoTD2fpRi7HfzD1Dlc-235" value="" style="endArrow=none;html=1;rounded=0;" edge="1" parent="1">
          <mxGeometry width="50" height="50" relative="1" as="geometry">
            <mxPoint x="1540" y="630" as="sourcePoint" />
            <mxPoint x="1539.66" y="610" as="targetPoint" />
          </mxGeometry>
        </mxCell>
        <mxCell id="4OtoTD2fpRi7HfzD1Dlc-236" value="" style="endArrow=none;html=1;rounded=0;" edge="1" parent="1">
          <mxGeometry width="50" height="50" relative="1" as="geometry">
            <mxPoint x="1569.31" y="660" as="sourcePoint" />
            <mxPoint x="1569.31" y="630" as="targetPoint" />
          </mxGeometry>
        </mxCell>
        <mxCell id="4OtoTD2fpRi7HfzD1Dlc-237" value="" style="endArrow=none;html=1;rounded=0;" edge="1" parent="1">
          <mxGeometry width="50" height="50" relative="1" as="geometry">
            <mxPoint x="1540" y="630" as="sourcePoint" />
            <mxPoint x="1570" y="630" as="targetPoint" />
          </mxGeometry>
        </mxCell>
        <mxCell id="4OtoTD2fpRi7HfzD1Dlc-238" value="" style="endArrow=none;html=1;rounded=0;" edge="1" parent="1">
          <mxGeometry width="50" height="50" relative="1" as="geometry">
            <mxPoint x="1720" y="630" as="sourcePoint" />
            <mxPoint x="1719.66" y="610" as="targetPoint" />
          </mxGeometry>
        </mxCell>
        <mxCell id="4OtoTD2fpRi7HfzD1Dlc-239" value="" style="endArrow=none;html=1;rounded=0;" edge="1" parent="1">
          <mxGeometry width="50" height="50" relative="1" as="geometry">
            <mxPoint x="1749.31" y="660" as="sourcePoint" />
            <mxPoint x="1749.31" y="630" as="targetPoint" />
          </mxGeometry>
        </mxCell>
        <mxCell id="4OtoTD2fpRi7HfzD1Dlc-240" value="" style="endArrow=none;html=1;rounded=0;" edge="1" parent="1">
          <mxGeometry width="50" height="50" relative="1" as="geometry">
            <mxPoint x="1720" y="630" as="sourcePoint" />
            <mxPoint x="1750" y="630" as="targetPoint" />
          </mxGeometry>
        </mxCell>
        <mxCell id="4OtoTD2fpRi7HfzD1Dlc-241" value="" style="endArrow=none;html=1;rounded=0;" edge="1" parent="1">
          <mxGeometry width="50" height="50" relative="1" as="geometry">
            <mxPoint x="1890" y="630" as="sourcePoint" />
            <mxPoint x="1889.66" y="610" as="targetPoint" />
          </mxGeometry>
        </mxCell>
        <mxCell id="4OtoTD2fpRi7HfzD1Dlc-242" value="" style="endArrow=none;html=1;rounded=0;" edge="1" parent="1">
          <mxGeometry width="50" height="50" relative="1" as="geometry">
            <mxPoint x="1919.31" y="660" as="sourcePoint" />
            <mxPoint x="1919.31" y="630" as="targetPoint" />
          </mxGeometry>
        </mxCell>
        <mxCell id="4OtoTD2fpRi7HfzD1Dlc-243" value="" style="endArrow=none;html=1;rounded=0;" edge="1" parent="1">
          <mxGeometry width="50" height="50" relative="1" as="geometry">
            <mxPoint x="1890" y="630" as="sourcePoint" />
            <mxPoint x="1920" y="630" as="targetPoint" />
          </mxGeometry>
        </mxCell>
        <mxCell id="4OtoTD2fpRi7HfzD1Dlc-244" value="" style="endArrow=none;html=1;rounded=0;" edge="1" parent="1">
          <mxGeometry width="50" height="50" relative="1" as="geometry">
            <mxPoint x="2060" y="630" as="sourcePoint" />
            <mxPoint x="2059.66" y="610" as="targetPoint" />
          </mxGeometry>
        </mxCell>
        <mxCell id="4OtoTD2fpRi7HfzD1Dlc-245" value="" style="endArrow=none;html=1;rounded=0;" edge="1" parent="1">
          <mxGeometry width="50" height="50" relative="1" as="geometry">
            <mxPoint x="2089.31" y="660" as="sourcePoint" />
            <mxPoint x="2089.31" y="630" as="targetPoint" />
          </mxGeometry>
        </mxCell>
        <mxCell id="4OtoTD2fpRi7HfzD1Dlc-246" value="" style="endArrow=none;html=1;rounded=0;" edge="1" parent="1">
          <mxGeometry width="50" height="50" relative="1" as="geometry">
            <mxPoint x="2060" y="630" as="sourcePoint" />
            <mxPoint x="2090" y="630" as="targetPoint" />
          </mxGeometry>
        </mxCell>
        <mxCell id="4OtoTD2fpRi7HfzD1Dlc-249" value="" style="rounded=0;whiteSpace=wrap;html=1;rotation=90;" vertex="1" parent="1">
          <mxGeometry x="255" y="190" width="120" height="90" as="geometry" />
        </mxCell>
        <mxCell id="4OtoTD2fpRi7HfzD1Dlc-250" value="" style="triangle;whiteSpace=wrap;html=1;" vertex="1" parent="1">
          <mxGeometry x="270" y="260" width="30" height="20" as="geometry" />
        </mxCell>
        <mxCell id="4OtoTD2fpRi7HfzD1Dlc-251" value="" style="endArrow=none;html=1;rounded=0;" edge="1" parent="1">
          <mxGeometry width="50" height="50" relative="1" as="geometry">
            <mxPoint x="200" y="200" as="sourcePoint" />
            <mxPoint x="270" y="200" as="targetPoint" />
          </mxGeometry>
        </mxCell>
        <mxCell id="4OtoTD2fpRi7HfzD1Dlc-253" value="" style="endArrow=none;html=1;rounded=0;" edge="1" parent="1">
          <mxGeometry width="50" height="50" relative="1" as="geometry">
            <mxPoint x="360" y="200" as="sourcePoint" />
            <mxPoint x="2030" y="200" as="targetPoint" />
          </mxGeometry>
        </mxCell>
        <mxCell id="4OtoTD2fpRi7HfzD1Dlc-257" value="" style="endArrow=classicThin;html=1;rounded=0;endFill=1;" edge="1" parent="1">
          <mxGeometry width="50" height="50" relative="1" as="geometry">
            <mxPoint x="2120" y="200" as="sourcePoint" />
            <mxPoint x="2190" y="200" as="targetPoint" />
          </mxGeometry>
        </mxCell>
        <mxCell id="4OtoTD2fpRi7HfzD1Dlc-254" value="" style="rounded=0;whiteSpace=wrap;html=1;rotation=90;" vertex="1" parent="1">
          <mxGeometry x="2015" y="190" width="120" height="90" as="geometry" />
        </mxCell>
        <mxCell id="4OtoTD2fpRi7HfzD1Dlc-255" value="" style="triangle;whiteSpace=wrap;html=1;" vertex="1" parent="1">
          <mxGeometry x="2030" y="260" width="30" height="20" as="geometry" />
        </mxCell>
        <mxCell id="4OtoTD2fpRi7HfzD1Dlc-259" value="" style="endArrow=oval;html=1;rounded=0;startArrow=none;startFill=0;endFill=1;" edge="1" parent="1">
          <mxGeometry width="50" height="50" relative="1" as="geometry">
            <mxPoint x="434.58" y="316" as="sourcePoint" />
            <mxPoint x="434.58" y="200" as="targetPoint" />
          </mxGeometry>
        </mxCell>
        <mxCell id="4OtoTD2fpRi7HfzD1Dlc-260" value="" style="endArrow=oval;html=1;rounded=0;startArrow=none;startFill=0;endFill=1;" edge="1" parent="1">
          <mxGeometry width="50" height="50" relative="1" as="geometry">
            <mxPoint x="609.58" y="316" as="sourcePoint" />
            <mxPoint x="609.58" y="200" as="targetPoint" />
          </mxGeometry>
        </mxCell>
        <mxCell id="4OtoTD2fpRi7HfzD1Dlc-261" value="" style="endArrow=oval;html=1;rounded=0;startArrow=none;startFill=0;endFill=1;" edge="1" parent="1">
          <mxGeometry width="50" height="50" relative="1" as="geometry">
            <mxPoint x="780" y="316" as="sourcePoint" />
            <mxPoint x="780" y="200" as="targetPoint" />
          </mxGeometry>
        </mxCell>
        <mxCell id="4OtoTD2fpRi7HfzD1Dlc-262" value="" style="endArrow=oval;html=1;rounded=0;startArrow=none;startFill=0;endFill=1;" edge="1" parent="1">
          <mxGeometry width="50" height="50" relative="1" as="geometry">
            <mxPoint x="949.58" y="316" as="sourcePoint" />
            <mxPoint x="949.58" y="200" as="targetPoint" />
          </mxGeometry>
        </mxCell>
        <mxCell id="4OtoTD2fpRi7HfzD1Dlc-263" value="" style="endArrow=oval;html=1;rounded=0;startArrow=none;startFill=0;endFill=1;" edge="1" parent="1">
          <mxGeometry width="50" height="50" relative="1" as="geometry">
            <mxPoint x="1120" y="316" as="sourcePoint" />
            <mxPoint x="1120" y="200" as="targetPoint" />
          </mxGeometry>
        </mxCell>
        <mxCell id="4OtoTD2fpRi7HfzD1Dlc-264" value="" style="endArrow=oval;html=1;rounded=0;startArrow=none;startFill=0;endFill=1;" edge="1" parent="1">
          <mxGeometry width="50" height="50" relative="1" as="geometry">
            <mxPoint x="1289.58" y="316" as="sourcePoint" />
            <mxPoint x="1289.58" y="200" as="targetPoint" />
          </mxGeometry>
        </mxCell>
        <mxCell id="4OtoTD2fpRi7HfzD1Dlc-265" value="" style="endArrow=oval;html=1;rounded=0;startArrow=none;startFill=0;endFill=1;" edge="1" parent="1">
          <mxGeometry width="50" height="50" relative="1" as="geometry">
            <mxPoint x="1464.58" y="316" as="sourcePoint" />
            <mxPoint x="1464.58" y="200" as="targetPoint" />
          </mxGeometry>
        </mxCell>
        <mxCell id="4OtoTD2fpRi7HfzD1Dlc-266" value="" style="endArrow=oval;html=1;rounded=0;startArrow=none;startFill=0;endFill=1;" edge="1" parent="1">
          <mxGeometry width="50" height="50" relative="1" as="geometry">
            <mxPoint x="1639.58" y="316" as="sourcePoint" />
            <mxPoint x="1639.58" y="200" as="targetPoint" />
          </mxGeometry>
        </mxCell>
        <mxCell id="4OtoTD2fpRi7HfzD1Dlc-267" value="" style="endArrow=oval;html=1;rounded=0;startArrow=none;startFill=0;endFill=1;" edge="1" parent="1">
          <mxGeometry width="50" height="50" relative="1" as="geometry">
            <mxPoint x="1809.58" y="316" as="sourcePoint" />
            <mxPoint x="1809.58" y="200" as="targetPoint" />
          </mxGeometry>
        </mxCell>
        <mxCell id="4OtoTD2fpRi7HfzD1Dlc-268" value="" style="endArrow=oval;html=1;rounded=0;startArrow=none;startFill=0;endFill=1;" edge="1" parent="1">
          <mxGeometry width="50" height="50" relative="1" as="geometry">
            <mxPoint x="1983.58" y="316" as="sourcePoint" />
            <mxPoint x="1983.58" y="200" as="targetPoint" />
          </mxGeometry>
        </mxCell>
        <mxCell id="4OtoTD2fpRi7HfzD1Dlc-297" value="" style="endArrow=none;html=1;rounded=0;" edge="1" parent="1">
          <mxGeometry width="50" height="50" relative="1" as="geometry">
            <mxPoint x="290" y="499.71" as="sourcePoint" />
            <mxPoint x="320" y="499.71" as="targetPoint" />
          </mxGeometry>
        </mxCell>
        <mxCell id="4OtoTD2fpRi7HfzD1Dlc-298" value="" style="endArrow=none;html=1;rounded=0;" edge="1" parent="1">
          <mxGeometry width="50" height="50" relative="1" as="geometry">
            <mxPoint x="450" y="499.71" as="sourcePoint" />
            <mxPoint x="480" y="499.71" as="targetPoint" />
          </mxGeometry>
        </mxCell>
        <mxCell id="4OtoTD2fpRi7HfzD1Dlc-299" value="" style="endArrow=none;html=1;rounded=0;" edge="1" parent="1">
          <mxGeometry width="50" height="50" relative="1" as="geometry">
            <mxPoint x="630" y="499.71" as="sourcePoint" />
            <mxPoint x="660" y="499.71" as="targetPoint" />
          </mxGeometry>
        </mxCell>
        <mxCell id="4OtoTD2fpRi7HfzD1Dlc-300" value="" style="endArrow=none;html=1;rounded=0;" edge="1" parent="1">
          <mxGeometry width="50" height="50" relative="1" as="geometry">
            <mxPoint x="800" y="499.71" as="sourcePoint" />
            <mxPoint x="830" y="499.71" as="targetPoint" />
          </mxGeometry>
        </mxCell>
        <mxCell id="4OtoTD2fpRi7HfzD1Dlc-301" value="" style="endArrow=none;html=1;rounded=0;" edge="1" parent="1">
          <mxGeometry width="50" height="50" relative="1" as="geometry">
            <mxPoint x="970" y="499.71" as="sourcePoint" />
            <mxPoint x="1000" y="499.71" as="targetPoint" />
          </mxGeometry>
        </mxCell>
        <mxCell id="4OtoTD2fpRi7HfzD1Dlc-302" value="" style="endArrow=none;html=1;rounded=0;" edge="1" parent="1">
          <mxGeometry width="50" height="50" relative="1" as="geometry">
            <mxPoint x="1140" y="499.71" as="sourcePoint" />
            <mxPoint x="1170" y="499.71" as="targetPoint" />
          </mxGeometry>
        </mxCell>
        <mxCell id="4OtoTD2fpRi7HfzD1Dlc-303" value="" style="endArrow=none;html=1;rounded=0;" edge="1" parent="1">
          <mxGeometry width="50" height="50" relative="1" as="geometry">
            <mxPoint x="1310" y="499.71" as="sourcePoint" />
            <mxPoint x="1340" y="499.71" as="targetPoint" />
          </mxGeometry>
        </mxCell>
        <mxCell id="4OtoTD2fpRi7HfzD1Dlc-304" value="" style="endArrow=none;html=1;rounded=0;" edge="1" parent="1">
          <mxGeometry width="50" height="50" relative="1" as="geometry">
            <mxPoint x="1480" y="499.71" as="sourcePoint" />
            <mxPoint x="1510" y="499.71" as="targetPoint" />
          </mxGeometry>
        </mxCell>
        <mxCell id="4OtoTD2fpRi7HfzD1Dlc-305" value="" style="endArrow=none;html=1;rounded=0;" edge="1" parent="1">
          <mxGeometry width="50" height="50" relative="1" as="geometry">
            <mxPoint x="1660" y="499.71" as="sourcePoint" />
            <mxPoint x="1690" y="499.71" as="targetPoint" />
          </mxGeometry>
        </mxCell>
        <mxCell id="4OtoTD2fpRi7HfzD1Dlc-306" value="" style="endArrow=none;html=1;rounded=0;" edge="1" parent="1">
          <mxGeometry width="50" height="50" relative="1" as="geometry">
            <mxPoint x="1830" y="499.71" as="sourcePoint" />
            <mxPoint x="1860" y="499.71" as="targetPoint" />
          </mxGeometry>
        </mxCell>
        <mxCell id="4OtoTD2fpRi7HfzD1Dlc-307" value="" style="endArrow=none;html=1;rounded=0;" edge="1" parent="1">
          <mxGeometry width="50" height="50" relative="1" as="geometry">
            <mxPoint x="2000" y="499.71" as="sourcePoint" />
            <mxPoint x="2030" y="499.71" as="targetPoint" />
          </mxGeometry>
        </mxCell>
      </root>
    </mxGraphModel>
  </diagram>
</mxfile>
